<?xml version="1.0" encoding="UTF-8"?><svg xmlns="http://www.w3.org/2000/svg" xmlns:xlink="http://www.w3.org/1999/xlink" fill-opacity="1" color-rendering="auto" color-interpolation="auto" text-rendering="auto" stroke="black" stroke-linecap="square" width="1056" stroke-miterlimit="10" shape-rendering="auto" stroke-opacity="1" fill="black" stroke-dasharray="none" font-weight="normal" stroke-width="1" height="1335" font-family="'Dialog'" font-style="normal" stroke-linejoin="miter" font-size="12px" stroke-dashoffset="0" image-rendering="auto">
  <!--Generated by ySVG 2.6-->
  <defs id="genericDefs"/>
  <g>
    <defs id="defs1">
      <clipPath clipPathUnits="userSpaceOnUse" id="clipPath1">
        <path d="M0 0 L1056 0 L1056 1335 L0 1335 L0 0 Z"/>
      </clipPath>
      <clipPath clipPathUnits="userSpaceOnUse" id="clipPath2">
        <path d="M-150 -15 L906 -15 L906 1320 L-150 1320 L-150 -15 Z"/>
      </clipPath>
      <clipPath clipPathUnits="userSpaceOnUse" id="clipPath3">
        <path d="M0 0 L0 128 L199 128 L199 0 Z"/>
      </clipPath>
      <clipPath clipPathUnits="userSpaceOnUse" id="clipPath4">
        <path d="M0 0 L0 111 L208 111 L208 0 Z"/>
      </clipPath>
      <clipPath clipPathUnits="userSpaceOnUse" id="clipPath5">
        <path d="M0 0 L0 94 L185 94 L185 0 Z"/>
      </clipPath>
      <clipPath clipPathUnits="userSpaceOnUse" id="clipPath6">
        <path d="M0 0 L0 94 L263 94 L263 0 Z"/>
      </clipPath>
      <clipPath clipPathUnits="userSpaceOnUse" id="clipPath7">
        <path d="M0 0 L0 111 L201 111 L201 0 Z"/>
      </clipPath>
      <clipPath clipPathUnits="userSpaceOnUse" id="clipPath8">
        <path d="M0 0 L0 94 L191 94 L191 0 Z"/>
      </clipPath>
      <clipPath clipPathUnits="userSpaceOnUse" id="clipPath9">
        <path d="M0 0 L0 94 L238 94 L238 0 Z"/>
      </clipPath>
      <clipPath clipPathUnits="userSpaceOnUse" id="clipPath10">
        <path d="M0 0 L0 111 L224 111 L224 0 Z"/>
      </clipPath>
      <clipPath clipPathUnits="userSpaceOnUse" id="clipPath11">
        <path d="M0 0 L0 179 L265 179 L265 0 Z"/>
      </clipPath>
      <clipPath clipPathUnits="userSpaceOnUse" id="clipPath12">
        <path d="M0 0 L0 128 L185 128 L185 0 Z"/>
      </clipPath>
      <clipPath clipPathUnits="userSpaceOnUse" id="clipPath13">
        <path d="M0 0 L0 94 L197 94 L197 0 Z"/>
      </clipPath>
      <clipPath clipPathUnits="userSpaceOnUse" id="clipPath14">
        <path d="M0 0 L0 77 L146 77 L146 0 Z"/>
      </clipPath>
      <clipPath clipPathUnits="userSpaceOnUse" id="clipPath15">
        <path d="M0 0 L0 17 L98 17 L98 0 Z"/>
      </clipPath>
      <clipPath clipPathUnits="userSpaceOnUse" id="clipPath16">
        <path d="M0 0 L0 17 L163 17 L163 0 Z"/>
      </clipPath>
      <clipPath clipPathUnits="userSpaceOnUse" id="clipPath17">
        <path d="M0 0 L0 17 L82 17 L82 0 Z"/>
      </clipPath>
      <clipPath clipPathUnits="userSpaceOnUse" id="clipPath18">
        <path d="M0 0 L0 17 L93 17 L93 0 Z"/>
      </clipPath>
      <clipPath clipPathUnits="userSpaceOnUse" id="clipPath19">
        <path d="M0 0 L0 17 L96 17 L96 0 Z"/>
      </clipPath>
      <clipPath clipPathUnits="userSpaceOnUse" id="clipPath20">
        <path d="M0 0 L0 17 L80 17 L80 0 Z"/>
      </clipPath>
      <clipPath clipPathUnits="userSpaceOnUse" id="clipPath21">
        <path d="M0 0 L0 17 L58 17 L58 0 Z"/>
      </clipPath>
      <clipPath clipPathUnits="userSpaceOnUse" id="clipPath22">
        <path d="M0 0 L0 17 L69 17 L69 0 Z"/>
      </clipPath>
      <clipPath clipPathUnits="userSpaceOnUse" id="clipPath23">
        <path d="M0 0 L0 17 L148 17 L148 0 Z"/>
      </clipPath>
      <clipPath clipPathUnits="userSpaceOnUse" id="clipPath24">
        <path d="M0 0 L0 17 L73 17 L73 0 Z"/>
      </clipPath>
      <clipPath clipPathUnits="userSpaceOnUse" id="clipPath25">
        <path d="M0 0 L0 17 L126 17 L126 0 Z"/>
      </clipPath>
      <clipPath clipPathUnits="userSpaceOnUse" id="clipPath26">
        <path d="M0 0 L0 17 L72 17 L72 0 Z"/>
      </clipPath>
    </defs>
    <g fill="white" text-rendering="geometricPrecision" shape-rendering="geometricPrecision" transform="translate(150,15)" stroke="white">
      <rect x="-150" width="1056" height="1335" y="-15" clip-path="url(#clipPath2)" stroke="none"/>
    </g>
    <g fill="silver" text-rendering="geometricPrecision" shape-rendering="geometricPrecision" transform="matrix(1,0,0,1,150,15)" stroke="silver">
      <rect x="214" width="213" height="134" y="776" clip-path="url(#clipPath2)" stroke="none"/>
    </g>
    <g text-rendering="geometricPrecision" stroke-miterlimit="1.45" shape-rendering="geometricPrecision" transform="matrix(1,0,0,1,150,15)" stroke-linecap="butt">
      <rect fill="none" x="214" width="213" height="134" y="776" clip-path="url(#clipPath2)"/>
    </g>
    <g font-size="14px" stroke-linecap="butt" transform="matrix(1,0,0,1,150,15) translate(221,779)" text-rendering="geometricPrecision" font-family="sans-serif" shape-rendering="geometricPrecision" font-weight="bold" stroke-miterlimit="1.45">
      <text x="0" xml:space="preserve" y="25" clip-path="url(#clipPath3)" stroke="none">Accreditation</text>
      <circle r="2" clip-path="url(#clipPath3)" cx="43" cy="60" stroke="none"/>
      <text x="50" font-size="12px" y="63" clip-path="url(#clipPath3)" stroke="none" font-weight="normal" xml:space="preserve">expiry date: dateTime [0,1]</text>
      <circle r="2" clip-path="url(#clipPath3)" cx="43" cy="77" stroke="none"/>
      <text x="50" font-size="12px" y="80" clip-path="url(#clipPath3)" stroke="none" font-weight="normal" xml:space="preserve">identifier: Identifier [0,1]</text>
      <circle r="2" clip-path="url(#clipPath3)" cx="43" cy="94" stroke="none"/>
      <text x="50" font-size="12px" y="97" clip-path="url(#clipPath3)" stroke="none" font-weight="normal" xml:space="preserve">title: langString [1,*]</text>
      <circle r="2" clip-path="url(#clipPath3)" cx="43" cy="111" stroke="none"/>
      <text x="50" font-size="12px" y="114" clip-path="url(#clipPath3)" stroke="none" font-weight="normal" xml:space="preserve">type: Concept [1,1]</text>
    </g>
    <g fill="silver" text-rendering="geometricPrecision" shape-rendering="geometricPrecision" transform="matrix(1,0,0,1,150,15)" stroke="silver">
      <rect x="-134.9275" width="222" height="117" y="0" clip-path="url(#clipPath2)" stroke="none"/>
    </g>
    <g text-rendering="geometricPrecision" stroke-miterlimit="1.45" shape-rendering="geometricPrecision" transform="matrix(1,0,0,1,150,15)" stroke-linecap="butt">
      <rect fill="none" x="-134.9275" width="222" height="117" y="0" clip-path="url(#clipPath2)"/>
    </g>
    <g font-size="14px" stroke-linecap="butt" transform="matrix(1,0,0,1,150,15) translate(-127,3)" text-rendering="geometricPrecision" font-family="sans-serif" shape-rendering="geometricPrecision" font-weight="bold" stroke-miterlimit="1.45">
      <text x="0" xml:space="preserve" y="25" clip-path="url(#clipPath4)" stroke="none">Concept</text>
      <circle r="2" clip-path="url(#clipPath4)" cx="43" cy="60" stroke="none"/>
      <text x="50" font-size="12px" y="63" clip-path="url(#clipPath4)" stroke="none" font-weight="normal" xml:space="preserve">alternative name: langString</text>
      <circle r="2" clip-path="url(#clipPath4)" cx="43" cy="77" stroke="none"/>
      <text x="50" font-size="12px" y="80" clip-path="url(#clipPath4)" stroke="none" font-weight="normal" xml:space="preserve">in scheme: ConceptScheme</text>
      <circle r="2" clip-path="url(#clipPath4)" cx="43" cy="94" stroke="none"/>
      <text x="50" font-size="12px" y="97" clip-path="url(#clipPath4)" stroke="none" font-weight="normal" xml:space="preserve">name: langString</text>
    </g>
    <g fill="silver" text-rendering="geometricPrecision" shape-rendering="geometricPrecision" transform="matrix(1,0,0,1,150,15)" stroke="silver">
      <rect x="167.75" width="199" height="100" y="1044" clip-path="url(#clipPath2)" stroke="none"/>
    </g>
    <g text-rendering="geometricPrecision" stroke-miterlimit="1.45" shape-rendering="geometricPrecision" transform="matrix(1,0,0,1,150,15)" stroke-linecap="butt">
      <rect fill="none" x="167.75" width="199" height="100" y="1044" clip-path="url(#clipPath2)"/>
    </g>
    <g font-size="14px" stroke-linecap="butt" transform="matrix(1,0,0,1,150,15) translate(174,1047)" text-rendering="geometricPrecision" font-family="sans-serif" shape-rendering="geometricPrecision" font-weight="bold" stroke-miterlimit="1.45">
      <text x="0" xml:space="preserve" y="25" clip-path="url(#clipPath5)" stroke="none">Organisation</text>
      <circle r="2" clip-path="url(#clipPath5)" cx="43" cy="60" stroke="none"/>
      <text x="50" font-size="12px" y="63" clip-path="url(#clipPath5)" stroke="none" font-weight="normal" xml:space="preserve">identifier: Identifier [0,1]</text>
      <circle r="2" clip-path="url(#clipPath5)" cx="43" cy="77" stroke="none"/>
      <text x="50" font-size="12px" y="80" clip-path="url(#clipPath5)" stroke="none" font-weight="normal" xml:space="preserve">name: langString [1,*]</text>
    </g>
    <g fill="silver" text-rendering="geometricPrecision" shape-rendering="geometricPrecision" transform="matrix(1,0,0,1,150,15)" stroke="silver">
      <rect x="-134.9275" width="277" height="100" y="229.7985" clip-path="url(#clipPath2)" stroke="none"/>
    </g>
    <g text-rendering="geometricPrecision" stroke-miterlimit="1.45" shape-rendering="geometricPrecision" transform="matrix(1,0,0,1,150,15)" stroke-linecap="butt">
      <rect fill="none" x="-134.9275" width="277" height="100" y="229.7985" clip-path="url(#clipPath2)"/>
    </g>
    <g font-size="14px" stroke-linecap="butt" transform="matrix(1,0,0,1,150,15) translate(-127,232)" text-rendering="geometricPrecision" font-family="sans-serif" shape-rendering="geometricPrecision" font-weight="bold" stroke-miterlimit="1.45">
      <text x="0" xml:space="preserve" y="25" clip-path="url(#clipPath6)" stroke="none">Identifier</text>
      <circle r="2" clip-path="url(#clipPath6)" cx="43" cy="60" stroke="none"/>
      <text x="50" font-size="12px" y="63" clip-path="url(#clipPath6)" stroke="none" font-weight="normal" xml:space="preserve">scheme agency name: langString [0,1]</text>
      <circle r="2" clip-path="url(#clipPath6)" cx="43" cy="77" stroke="none"/>
      <text x="50" font-size="12px" y="80" clip-path="url(#clipPath6)" stroke="none" font-weight="normal" xml:space="preserve">scheme name: string [0,1]</text>
    </g>
    <g fill="silver" text-rendering="geometricPrecision" shape-rendering="geometricPrecision" transform="matrix(1,0,0,1,150,15)" stroke="silver">
      <rect x="99.5" width="199" height="100" y="661" clip-path="url(#clipPath2)" stroke="none"/>
    </g>
    <g text-rendering="geometricPrecision" stroke-miterlimit="1.45" shape-rendering="geometricPrecision" transform="matrix(1,0,0,1,150,15)" stroke-linecap="butt">
      <rect fill="none" x="99.5" width="199" height="100" y="661" clip-path="url(#clipPath2)"/>
    </g>
    <g font-size="14px" stroke-linecap="butt" transform="matrix(1,0,0,1,150,15) translate(106,664)" text-rendering="geometricPrecision" font-family="sans-serif" shape-rendering="geometricPrecision" font-weight="bold" stroke-miterlimit="1.45">
      <text x="0" xml:space="preserve" y="25" clip-path="url(#clipPath5)" stroke="none">AwardingOpportunity</text>
      <circle r="2" clip-path="url(#clipPath5)" cx="43" cy="60" stroke="none"/>
      <text x="50" font-size="12px" y="63" clip-path="url(#clipPath5)" stroke="none" font-weight="normal" xml:space="preserve">identifier: Identifier [0,1]</text>
      <circle r="2" clip-path="url(#clipPath5)" cx="43" cy="77" stroke="none"/>
      <text x="50" font-size="12px" y="80" clip-path="url(#clipPath5)" stroke="none" font-weight="normal" xml:space="preserve">more information: Note</text>
    </g>
    <g fill="silver" text-rendering="geometricPrecision" shape-rendering="geometricPrecision" transform="matrix(1,0,0,1,150,15)" stroke="silver">
      <rect x="-134.9275" width="215" height="117" y="344.6977" clip-path="url(#clipPath2)" stroke="none"/>
    </g>
    <g text-rendering="geometricPrecision" stroke-miterlimit="1.45" shape-rendering="geometricPrecision" transform="matrix(1,0,0,1,150,15)" stroke-linecap="butt">
      <rect fill="none" x="-134.9275" width="215" height="117" y="344.6977" clip-path="url(#clipPath2)"/>
    </g>
    <g font-size="14px" stroke-linecap="butt" transform="matrix(1,0,0,1,150,15) translate(-127,347)" text-rendering="geometricPrecision" font-family="sans-serif" shape-rendering="geometricPrecision" font-weight="bold" stroke-miterlimit="1.45">
      <text x="0" xml:space="preserve" y="25" clip-path="url(#clipPath7)" stroke="none">Note</text>
      <circle r="2" clip-path="url(#clipPath7)" cx="43" cy="60" stroke="none"/>
      <text x="50" font-size="12px" y="63" clip-path="url(#clipPath7)" stroke="none" font-weight="normal" xml:space="preserve">note format: Concept [0,1]</text>
      <circle r="2" clip-path="url(#clipPath7)" cx="43" cy="77" stroke="none"/>
      <text x="50" font-size="12px" y="80" clip-path="url(#clipPath7)" stroke="none" font-weight="normal" xml:space="preserve">note literal: langString [1,*]</text>
      <circle r="2" clip-path="url(#clipPath7)" cx="43" cy="94" stroke="none"/>
      <text x="50" font-size="12px" y="97" clip-path="url(#clipPath7)" stroke="none" font-weight="normal" xml:space="preserve">subject: Concept [0,1]</text>
    </g>
    <g fill="silver" text-rendering="geometricPrecision" shape-rendering="geometricPrecision" transform="matrix(1,0,0,1,150,15)" stroke="silver">
      <rect x="339.5" width="205" height="100" y="661" clip-path="url(#clipPath2)" stroke="none"/>
    </g>
    <g text-rendering="geometricPrecision" stroke-miterlimit="1.45" shape-rendering="geometricPrecision" transform="matrix(1,0,0,1,150,15)" stroke-linecap="butt">
      <rect fill="none" x="339.5" width="205" height="100" y="661" clip-path="url(#clipPath2)"/>
    </g>
    <g font-size="14px" stroke-linecap="butt" transform="matrix(1,0,0,1,150,15) translate(346,664)" text-rendering="geometricPrecision" font-family="sans-serif" shape-rendering="geometricPrecision" font-weight="bold" stroke-miterlimit="1.45">
      <text x="0" xml:space="preserve" y="25" clip-path="url(#clipPath8)" stroke="none">CreditPoint</text>
      <circle r="2" clip-path="url(#clipPath8)" cx="43" cy="60" stroke="none"/>
      <text x="50" font-size="12px" y="63" clip-path="url(#clipPath8)" stroke="none" font-weight="normal" xml:space="preserve">framework: Concept [1,1]</text>
      <circle r="2" clip-path="url(#clipPath8)" cx="43" cy="77" stroke="none"/>
      <text x="50" font-size="12px" y="80" clip-path="url(#clipPath8)" stroke="none" font-weight="normal" xml:space="preserve">point: decimal [1,1]</text>
    </g>
    <g fill="silver" text-rendering="geometricPrecision" shape-rendering="geometricPrecision" transform="matrix(1,0,0,1,150,15)" stroke="silver">
      <rect x="574.5" width="252" height="100" y="661" clip-path="url(#clipPath2)" stroke="none"/>
    </g>
    <g text-rendering="geometricPrecision" stroke-miterlimit="1.45" shape-rendering="geometricPrecision" transform="matrix(1,0,0,1,150,15)" stroke-linecap="butt">
      <rect fill="none" x="574.5" width="252" height="100" y="661" clip-path="url(#clipPath2)"/>
    </g>
    <g font-size="14px" stroke-linecap="butt" transform="matrix(1,0,0,1,150,15) translate(581,664)" text-rendering="geometricPrecision" font-family="sans-serif" shape-rendering="geometricPrecision" font-weight="bold" stroke-miterlimit="1.45">
      <text x="0" xml:space="preserve" y="25" clip-path="url(#clipPath9)" stroke="none">LearningEntitlementSpecification</text>
      <circle r="2" clip-path="url(#clipPath9)" cx="43" cy="60" stroke="none"/>
      <text x="50" font-size="12px" y="63" clip-path="url(#clipPath9)" stroke="none" font-weight="normal" xml:space="preserve">identifier: Identifier [0,1]</text>
      <circle r="2" clip-path="url(#clipPath9)" cx="43" cy="77" stroke="none"/>
      <text x="50" font-size="12px" y="80" clip-path="url(#clipPath9)" stroke="none" font-weight="normal" xml:space="preserve">limit national occupation: Concept</text>
    </g>
    <g fill="silver" text-rendering="geometricPrecision" shape-rendering="geometricPrecision" transform="matrix(1,0,0,1,150,15)" stroke="silver">
      <rect x="629.75" width="238" height="117" y="0" clip-path="url(#clipPath2)" stroke="none"/>
    </g>
    <g text-rendering="geometricPrecision" stroke-miterlimit="1.45" shape-rendering="geometricPrecision" transform="matrix(1,0,0,1,150,15)" stroke-linecap="butt">
      <rect fill="none" x="629.75" width="238" height="117" y="0" clip-path="url(#clipPath2)"/>
    </g>
    <g font-size="14px" stroke-linecap="butt" transform="matrix(1,0,0,1,150,15) translate(636,3)" text-rendering="geometricPrecision" font-family="sans-serif" shape-rendering="geometricPrecision" font-weight="bold" stroke-miterlimit="1.45">
      <text x="0" xml:space="preserve" y="25" clip-path="url(#clipPath10)" stroke="none">LearningOpportunity</text>
      <circle r="2" clip-path="url(#clipPath10)" cx="43" cy="60" stroke="none"/>
      <text x="50" font-size="12px" y="63" clip-path="url(#clipPath10)" stroke="none" font-weight="normal" xml:space="preserve">default language: Concept [1,1]</text>
      <circle r="2" clip-path="url(#clipPath10)" cx="43" cy="77" stroke="none"/>
      <text x="50" font-size="12px" y="80" clip-path="url(#clipPath10)" stroke="none" font-weight="normal" xml:space="preserve">identifier: Identifier [0,1]</text>
      <circle r="2" clip-path="url(#clipPath10)" cx="43" cy="94" stroke="none"/>
      <text x="50" font-size="12px" y="97" clip-path="url(#clipPath10)" stroke="none" font-weight="normal" xml:space="preserve">title: langString [1,*]</text>
    </g>
    <g fill="silver" text-rendering="geometricPrecision" shape-rendering="geometricPrecision" transform="matrix(1,0,0,1,150,15)" stroke="silver">
      <rect x="279.25" width="279" height="185" y="326" clip-path="url(#clipPath2)" stroke="none"/>
    </g>
    <g text-rendering="geometricPrecision" stroke-miterlimit="1.45" shape-rendering="geometricPrecision" transform="matrix(1,0,0,1,150,15)" stroke-linecap="butt">
      <rect fill="none" x="279.25" width="279" height="185" y="326" clip-path="url(#clipPath2)"/>
    </g>
    <g font-size="14px" stroke-linecap="butt" transform="matrix(1,0,0,1,150,15) translate(286,329)" text-rendering="geometricPrecision" font-family="sans-serif" shape-rendering="geometricPrecision" font-weight="bold" stroke-miterlimit="1.45">
      <text x="0" xml:space="preserve" y="25" clip-path="url(#clipPath11)" stroke="none">Qualification</text>
      <circle r="2" clip-path="url(#clipPath11)" cx="43" cy="60" stroke="none"/>
      <text x="50" font-size="12px" y="63" clip-path="url(#clipPath11)" stroke="none" font-weight="normal" xml:space="preserve">education level: Concept</text>
      <circle r="2" clip-path="url(#clipPath11)" cx="43" cy="77" stroke="none"/>
      <text x="50" font-size="12px" y="80" clip-path="url(#clipPath11)" stroke="none" font-weight="normal" xml:space="preserve">homepage: WebResource</text>
      <circle r="2" clip-path="url(#clipPath11)" cx="43" cy="94" stroke="none"/>
      <text x="50" font-size="12px" y="97" clip-path="url(#clipPath11)" stroke="none" font-weight="normal" xml:space="preserve">identifier: Identifier [0,1]</text>
      <circle r="2" clip-path="url(#clipPath11)" cx="43" cy="111" stroke="none"/>
      <text x="50" font-size="12px" y="114" clip-path="url(#clipPath11)" stroke="none" font-weight="normal" xml:space="preserve">learning outcome summary: Note [0,1]</text>
      <circle r="2" clip-path="url(#clipPath11)" cx="43" cy="128" stroke="none"/>
      <text x="50" font-size="12px" y="131" clip-path="url(#clipPath11)" stroke="none" font-weight="normal" xml:space="preserve">other documents: WebResource [1,*]</text>
      <circle r="2" clip-path="url(#clipPath11)" cx="43" cy="145" stroke="none"/>
      <text x="50" font-size="12px" y="148" clip-path="url(#clipPath11)" stroke="none" font-weight="normal" xml:space="preserve">thematic area: Concept</text>
      <circle r="2" clip-path="url(#clipPath11)" cx="43" cy="162" stroke="none"/>
      <text x="50" font-size="12px" y="165" clip-path="url(#clipPath11)" stroke="none" font-weight="normal" xml:space="preserve">title: langString [1,*]</text>
    </g>
    <g fill="silver" text-rendering="geometricPrecision" shape-rendering="geometricPrecision" transform="matrix(1,0,0,1,150,15)" stroke="silver">
      <rect x="460" width="199" height="134" y="776" clip-path="url(#clipPath2)" stroke="none"/>
    </g>
    <g text-rendering="geometricPrecision" stroke-miterlimit="1.45" shape-rendering="geometricPrecision" transform="matrix(1,0,0,1,150,15)" stroke-linecap="butt">
      <rect fill="none" x="460" width="199" height="134" y="776" clip-path="url(#clipPath2)"/>
    </g>
    <g font-size="14px" stroke-linecap="butt" transform="matrix(1,0,0,1,150,15) translate(467,779)" text-rendering="geometricPrecision" font-family="sans-serif" shape-rendering="geometricPrecision" font-weight="bold" stroke-miterlimit="1.45">
      <text x="0" xml:space="preserve" y="25" clip-path="url(#clipPath12)" stroke="none">LearningOutcome</text>
      <circle r="2" clip-path="url(#clipPath12)" cx="43" cy="60" stroke="none"/>
      <text x="50" font-size="12px" y="63" clip-path="url(#clipPath12)" stroke="none" font-weight="normal" xml:space="preserve">identifier: Identifier [0,1]</text>
      <circle r="2" clip-path="url(#clipPath12)" cx="43" cy="77" stroke="none"/>
      <text x="50" font-size="12px" y="80" clip-path="url(#clipPath12)" stroke="none" font-weight="normal" xml:space="preserve">more information: Note</text>
      <circle r="2" clip-path="url(#clipPath12)" cx="43" cy="94" stroke="none"/>
      <text x="50" font-size="12px" y="97" clip-path="url(#clipPath12)" stroke="none" font-weight="normal" xml:space="preserve">related skill(s): Concept</text>
      <circle r="2" clip-path="url(#clipPath12)" cx="43" cy="111" stroke="none"/>
      <text x="50" font-size="12px" y="114" clip-path="url(#clipPath12)" stroke="none" font-weight="normal" xml:space="preserve">title: langString [1,*]</text>
    </g>
    <g fill="silver" text-rendering="geometricPrecision" shape-rendering="geometricPrecision" transform="matrix(1,0,0,1,150,15)" stroke="silver">
      <rect x="161.75" width="211" height="100" y="1205" clip-path="url(#clipPath2)" stroke="none"/>
    </g>
    <g text-rendering="geometricPrecision" stroke-miterlimit="1.45" shape-rendering="geometricPrecision" transform="matrix(1,0,0,1,150,15)" stroke-linecap="butt">
      <rect fill="none" x="161.75" width="211" height="100" y="1205" clip-path="url(#clipPath2)"/>
    </g>
    <g font-size="14px" stroke-linecap="butt" transform="matrix(1,0,0,1,150,15) translate(168,1208)" text-rendering="geometricPrecision" font-family="sans-serif" shape-rendering="geometricPrecision" font-weight="bold" stroke-miterlimit="1.45">
      <text x="0" xml:space="preserve" y="25" clip-path="url(#clipPath13)" stroke="none">Location</text>
      <circle r="2" clip-path="url(#clipPath13)" cx="43" cy="60" stroke="none"/>
      <text x="50" font-size="12px" y="63" clip-path="url(#clipPath13)" stroke="none" font-weight="normal" xml:space="preserve">identifier: Identifier [0,1]</text>
      <circle r="2" clip-path="url(#clipPath13)" cx="43" cy="77" stroke="none"/>
      <text x="50" font-size="12px" y="80" clip-path="url(#clipPath13)" stroke="none" font-weight="normal" xml:space="preserve">spatial code: Concept [1,*]</text>
    </g>
    <g fill="silver" text-rendering="geometricPrecision" shape-rendering="geometricPrecision" transform="matrix(1,0,0,1,150,15)" stroke="silver">
      <rect x="-134.9275" width="160" height="83" y="131.8992" clip-path="url(#clipPath2)" stroke="none"/>
    </g>
    <g text-rendering="geometricPrecision" stroke-miterlimit="1.45" shape-rendering="geometricPrecision" transform="matrix(1,0,0,1,150,15)" stroke-linecap="butt">
      <rect fill="none" x="-134.9275" width="160" height="83" y="131.8992" clip-path="url(#clipPath2)"/>
    </g>
    <g font-size="14px" stroke-linecap="butt" transform="matrix(1,0,0,1,150,15) translate(-127,134)" text-rendering="geometricPrecision" font-family="sans-serif" shape-rendering="geometricPrecision" font-weight="bold" stroke-miterlimit="1.45">
      <text x="0" xml:space="preserve" y="25" clip-path="url(#clipPath14)" stroke="none">WebResource</text>
      <circle r="2" clip-path="url(#clipPath14)" cx="43" cy="60" stroke="none"/>
      <text x="50" font-size="12px" y="63" clip-path="url(#clipPath14)" stroke="none" font-weight="normal" xml:space="preserve">URL: anyURI [1,1]</text>
    </g>
    <g text-rendering="geometricPrecision" stroke-miterlimit="1.45" shape-rendering="geometricPrecision" transform="matrix(1,0,0,1,150,15)" stroke-linecap="butt">
      <path fill="none" d="M267.25 910 L267.25 1035.9673" clip-path="url(#clipPath2)"/>
      <path d="M267.25 1043.9673 L272.25 1031.9673 L267.25 1034.9673 L262.25 1031.9673 Z" clip-path="url(#clipPath2)" stroke="none"/>
    </g>
    <g text-rendering="geometricPrecision" stroke-miterlimit="1.45" shape-rendering="geometricPrecision" font-family="sans-serif" transform="matrix(1,0,0,1,150,15) translate(218,978)" stroke-linecap="butt">
      <text x="0" xml:space="preserve" y="13" clip-path="url(#clipPath15)" stroke="none">organisation [1,*]</text>
    </g>
    <g text-rendering="geometricPrecision" stroke-miterlimit="1.45" shape-rendering="geometricPrecision" transform="matrix(1,0,0,1,150,15)" stroke-linecap="butt">
      <path fill="none" d="M373.75 910 L373.75 1012.5 L307.05 1012.5 L307.05 1035.9692" clip-path="url(#clipPath2)"/>
      <path d="M307.05 1043.9692 L312.05 1031.9692 L307.05 1034.9692 L302.05 1031.9692 Z" clip-path="url(#clipPath2)" stroke="none"/>
    </g>
    <g text-rendering="geometricPrecision" stroke-miterlimit="1.45" shape-rendering="geometricPrecision" font-family="sans-serif" transform="matrix(1,0,0,1,150,15) translate(292,937)" stroke-linecap="butt">
      <text x="0" xml:space="preserve" y="13" clip-path="url(#clipPath16)" stroke="none">accrediting organisation [1,1]</text>
    </g>
    <g text-rendering="geometricPrecision" stroke-miterlimit="1.45" shape-rendering="geometricPrecision" transform="matrix(1,0,0,1,150,15)" stroke-linecap="butt">
      <path fill="none" d="M199 761 L199 1012.5 L227.45 1012.5 L227.45 1035.9692" clip-path="url(#clipPath2)"/>
      <path d="M227.45 1043.9692 L232.45 1031.9692 L227.45 1034.9692 L222.45 1031.9692 Z" clip-path="url(#clipPath2)" stroke="none"/>
    </g>
    <g text-rendering="geometricPrecision" stroke-miterlimit="1.45" shape-rendering="geometricPrecision" font-family="sans-serif" transform="matrix(1,0,0,1,150,15) translate(158,937)" stroke-linecap="butt">
      <text x="0" xml:space="preserve" y="13" clip-path="url(#clipPath17)" stroke="none">awarding body</text>
    </g>
    <g text-rendering="geometricPrecision" stroke-miterlimit="1.45" shape-rendering="geometricPrecision" transform="matrix(1,0,0,1,150,15)" stroke-linecap="butt">
      <path fill="none" d="M808.25 117 L808.25 132.5 L842 132.5 L842 1028.5 L346.85 1028.5 L346.85 1035.9697" clip-path="url(#clipPath2)"/>
      <path d="M346.85 1043.9697 L351.85 1031.9697 L346.85 1034.9697 L341.85 1031.9697 Z" clip-path="url(#clipPath2)" stroke="none"/>
    </g>
    <g text-rendering="geometricPrecision" stroke-miterlimit="1.45" shape-rendering="geometricPrecision" font-family="sans-serif" transform="matrix(1,0,0,1,150,15) translate(795,627)" stroke-linecap="butt">
      <text x="0" xml:space="preserve" y="13" clip-path="url(#clipPath18)" stroke="none">provided by [1,*]</text>
    </g>
    <g text-rendering="geometricPrecision" stroke-miterlimit="1.45" shape-rendering="geometricPrecision" transform="matrix(1,0,0,1,150,15)" stroke-linecap="butt">
      <path fill="none" d="M689.25 117 L689.25 264.5 L418.75 264.5 L418.75 317.97" clip-path="url(#clipPath2)"/>
      <path d="M418.75 325.97 L423.75 313.97 L418.75 316.97 L413.75 313.97 Z" clip-path="url(#clipPath2)" stroke="none"/>
    </g>
    <g text-rendering="geometricPrecision" stroke-miterlimit="1.45" shape-rendering="geometricPrecision" font-family="sans-serif" transform="matrix(1,0,0,1,150,15) translate(370,292)" stroke-linecap="butt">
      <text x="0" xml:space="preserve" y="13" clip-path="url(#clipPath19)" stroke="none">qualification [1,1]</text>
    </g>
    <g text-rendering="geometricPrecision" stroke-miterlimit="1.45" shape-rendering="geometricPrecision" transform="matrix(1,0,0,1,150,15)" stroke-linecap="butt">
      <path fill="none" d="M302.5 511 L302.5 526.5 L42 526.5 L42 1028.5 L187.65 1028.5 L187.65 1035.9697" clip-path="url(#clipPath2)"/>
      <path d="M187.65 1043.9697 L192.65 1031.9697 L187.65 1034.9697 L182.65 1031.9697 Z" clip-path="url(#clipPath2)" stroke="none"/>
    </g>
    <g text-rendering="geometricPrecision" stroke-miterlimit="1.45" shape-rendering="geometricPrecision" font-family="sans-serif" transform="matrix(1,0,0,1,150,15) translate(2,707)" stroke-linecap="butt">
      <text x="0" xml:space="preserve" y="13" clip-path="url(#clipPath20)" stroke="none">publisher [1,1]</text>
    </g>
    <g text-rendering="geometricPrecision" stroke-miterlimit="1.45" shape-rendering="geometricPrecision" transform="matrix(1,0,0,1,150,15)" stroke-linecap="butt">
      <path fill="none" d="M535 511 L535 526.5 L700.5 526.5 L700.5 652.9672" clip-path="url(#clipPath2)"/>
      <path d="M700.5 660.9672 L705.5 648.9672 L700.5 651.9672 L695.5 648.9672 Z" clip-path="url(#clipPath2)" stroke="none"/>
    </g>
    <g text-rendering="geometricPrecision" stroke-miterlimit="1.45" shape-rendering="geometricPrecision" font-family="sans-serif" transform="matrix(1,0,0,1,150,15) translate(671,586)" stroke-linecap="butt">
      <text x="0" xml:space="preserve" y="13" clip-path="url(#clipPath21)" stroke="none">entitles To</text>
    </g>
    <g text-rendering="geometricPrecision" stroke-miterlimit="1.45" shape-rendering="geometricPrecision" transform="matrix(1,0,0,1,150,15)" stroke-linecap="butt">
      <path fill="none" d="M442 511 L442 652.9634" clip-path="url(#clipPath2)"/>
      <path d="M442 660.9634 L447 648.9634 L442 651.9634 L437 648.9634 Z" clip-path="url(#clipPath2)" stroke="none"/>
    </g>
    <g text-rendering="geometricPrecision" stroke-miterlimit="1.45" shape-rendering="geometricPrecision" font-family="sans-serif" transform="matrix(1,0,0,1,150,15) translate(407,586)" stroke-linecap="butt">
      <text x="0" xml:space="preserve" y="13" clip-path="url(#clipPath22)" stroke="none">credit points</text>
    </g>
    <g text-rendering="geometricPrecision" stroke-miterlimit="1.45" shape-rendering="geometricPrecision" transform="matrix(1,0,0,1,150,15)" stroke-linecap="butt">
      <path fill="none" d="M349 511 L349 542.5 L199 542.5 L199 652.9711" clip-path="url(#clipPath2)"/>
      <path d="M199 660.9711 L204 648.9711 L199 651.9711 L194 648.9711 Z" clip-path="url(#clipPath2)" stroke="none"/>
    </g>
    <g text-rendering="geometricPrecision" stroke-miterlimit="1.45" shape-rendering="geometricPrecision" font-family="sans-serif" transform="matrix(1,0,0,1,150,15) translate(125,586)" stroke-linecap="butt">
      <text x="0" xml:space="preserve" y="13" clip-path="url(#clipPath23)" stroke="none">awarding information [1,*]</text>
    </g>
    <g text-rendering="geometricPrecision" stroke-miterlimit="1.45" shape-rendering="geometricPrecision" transform="matrix(1,0,0,1,150,15)" stroke-linecap="butt">
      <path fill="none" d="M395.5 511 L395.5 558.5 L320.5 558.5 L320.5 767.9734" clip-path="url(#clipPath2)"/>
      <path d="M320.5 775.9734 L325.5 763.9734 L320.5 766.9734 L315.5 763.9734 Z" clip-path="url(#clipPath2)" stroke="none"/>
    </g>
    <g text-rendering="geometricPrecision" stroke-miterlimit="1.45" shape-rendering="geometricPrecision" font-family="sans-serif" transform="matrix(1,0,0,1,150,15) translate(283,627)" stroke-linecap="butt">
      <text x="0" xml:space="preserve" y="13" clip-path="url(#clipPath24)" stroke="none">accreditation</text>
    </g>
    <g text-rendering="geometricPrecision" stroke-miterlimit="1.45" shape-rendering="geometricPrecision" transform="matrix(1,0,0,1,150,15)" stroke-linecap="butt">
      <path fill="none" d="M488.5 511 L488.5 542.5 L559.5 542.5 L559.5 767.9715" clip-path="url(#clipPath2)"/>
      <path d="M559.5 775.9715 L564.5 763.9715 L559.5 766.9715 L554.5 763.9715 Z" clip-path="url(#clipPath2)" stroke="none"/>
    </g>
    <g text-rendering="geometricPrecision" stroke-miterlimit="1.45" shape-rendering="geometricPrecision" font-family="sans-serif" transform="matrix(1,0,0,1,150,15) translate(496,627)" stroke-linecap="butt">
      <text x="0" xml:space="preserve" y="13" clip-path="url(#clipPath25)" stroke="none">learning outcome [1,*]</text>
    </g>
    <g text-rendering="geometricPrecision" stroke-miterlimit="1.45" shape-rendering="geometricPrecision" transform="matrix(1,0,0,1,150,15)" stroke-linecap="butt">
      <path fill="none" d="M267.25 1144 L267.25 1196.9702" clip-path="url(#clipPath2)"/>
      <path d="M267.25 1204.9702 L272.25 1192.9702 L267.25 1195.9702 L262.25 1192.9702 Z" clip-path="url(#clipPath2)" stroke="none"/>
    </g>
    <g text-rendering="geometricPrecision" stroke-miterlimit="1.45" shape-rendering="geometricPrecision" font-family="sans-serif" transform="matrix(1,0,0,1,150,15) translate(231,1171)" stroke-linecap="butt">
      <text x="0" xml:space="preserve" y="13" clip-path="url(#clipPath26)" stroke="none">location [1,*]</text>
    </g>
  </g>
</svg>
