<?xml version="1.0" encoding="UTF-8"?><svg xmlns="http://www.w3.org/2000/svg" xmlns:xlink="http://www.w3.org/1999/xlink" fill-opacity="1" color-rendering="auto" color-interpolation="auto" text-rendering="auto" stroke="black" stroke-linecap="square" width="1098" stroke-miterlimit="10" shape-rendering="auto" stroke-opacity="1" fill="black" stroke-dasharray="none" font-weight="normal" stroke-width="1" height="1391" font-family="'Dialog'" font-style="normal" stroke-linejoin="miter" font-size="12px" stroke-dashoffset="0" image-rendering="auto">
  <!--Generated by ySVG 2.6-->
  <defs id="genericDefs"/>
  <g>
    <defs id="defs1">
      <clipPath clipPathUnits="userSpaceOnUse" id="clipPath1">
        <path d="M0 0 L1098 0 L1098 1391 L0 1391 L0 0 Z"/>
      </clipPath>
      <clipPath clipPathUnits="userSpaceOnUse" id="clipPath2">
        <path d="M-162 -15 L936 -15 L936 1376 L-162 1376 L-162 -15 Z"/>
      </clipPath>
      <clipPath clipPathUnits="userSpaceOnUse" id="clipPath3">
        <path d="M0 0 L0 128 L199 128 L199 0 Z"/>
      </clipPath>
      <clipPath clipPathUnits="userSpaceOnUse" id="clipPath4">
        <path d="M0 0 L0 111 L208 111 L208 0 Z"/>
      </clipPath>
      <clipPath clipPathUnits="userSpaceOnUse" id="clipPath5">
        <path d="M0 0 L0 94 L185 94 L185 0 Z"/>
      </clipPath>
      <clipPath clipPathUnits="userSpaceOnUse" id="clipPath6">
        <path d="M0 0 L0 94 L263 94 L263 0 Z"/>
      </clipPath>
      <clipPath clipPathUnits="userSpaceOnUse" id="clipPath7">
        <path d="M0 0 L0 111 L201 111 L201 0 Z"/>
      </clipPath>
      <clipPath clipPathUnits="userSpaceOnUse" id="clipPath8">
        <path d="M0 0 L0 94 L191 94 L191 0 Z"/>
      </clipPath>
      <clipPath clipPathUnits="userSpaceOnUse" id="clipPath9">
        <path d="M0 0 L0 94 L238 94 L238 0 Z"/>
      </clipPath>
      <clipPath clipPathUnits="userSpaceOnUse" id="clipPath10">
        <path d="M0 0 L0 111 L224 111 L224 0 Z"/>
      </clipPath>
      <clipPath clipPathUnits="userSpaceOnUse" id="clipPath11">
        <path d="M0 0 L0 179 L265 179 L265 0 Z"/>
      </clipPath>
      <clipPath clipPathUnits="userSpaceOnUse" id="clipPath12">
        <path d="M0 0 L0 128 L185 128 L185 0 Z"/>
      </clipPath>
      <clipPath clipPathUnits="userSpaceOnUse" id="clipPath13">
        <path d="M0 0 L0 94 L197 94 L197 0 Z"/>
      </clipPath>
      <clipPath clipPathUnits="userSpaceOnUse" id="clipPath14">
        <path d="M0 0 L0 77 L146 77 L146 0 Z"/>
      </clipPath>
      <clipPath clipPathUnits="userSpaceOnUse" id="clipPath15">
        <path d="M0 0 L0 17 L70 17 L70 0 Z"/>
      </clipPath>
      <clipPath clipPathUnits="userSpaceOnUse" id="clipPath16">
        <path d="M0 0 L0 17 L163 17 L163 0 Z"/>
      </clipPath>
      <clipPath clipPathUnits="userSpaceOnUse" id="clipPath17">
        <path d="M0 0 L0 17 L82 17 L82 0 Z"/>
      </clipPath>
      <clipPath clipPathUnits="userSpaceOnUse" id="clipPath18">
        <path d="M0 0 L0 17 L93 17 L93 0 Z"/>
      </clipPath>
      <clipPath clipPathUnits="userSpaceOnUse" id="clipPath19">
        <path d="M0 0 L0 17 L96 17 L96 0 Z"/>
      </clipPath>
      <clipPath clipPathUnits="userSpaceOnUse" id="clipPath20">
        <path d="M0 0 L0 17 L80 17 L80 0 Z"/>
      </clipPath>
      <clipPath clipPathUnits="userSpaceOnUse" id="clipPath21">
        <path d="M0 0 L0 17 L58 17 L58 0 Z"/>
      </clipPath>
      <clipPath clipPathUnits="userSpaceOnUse" id="clipPath22">
        <path d="M0 0 L0 17 L69 17 L69 0 Z"/>
      </clipPath>
      <clipPath clipPathUnits="userSpaceOnUse" id="clipPath23">
        <path d="M0 0 L0 17 L148 17 L148 0 Z"/>
      </clipPath>
      <clipPath clipPathUnits="userSpaceOnUse" id="clipPath24">
        <path d="M0 0 L0 17 L73 17 L73 0 Z"/>
      </clipPath>
      <clipPath clipPathUnits="userSpaceOnUse" id="clipPath25">
        <path d="M0 0 L0 17 L126 17 L126 0 Z"/>
      </clipPath>
      <clipPath clipPathUnits="userSpaceOnUse" id="clipPath26">
        <path d="M0 0 L0 17 L72 17 L72 0 Z"/>
      </clipPath>
    </defs>
    <g fill="white" text-rendering="geometricPrecision" shape-rendering="geometricPrecision" transform="translate(162,15)" stroke="white">
      <rect x="-162" width="1098" height="1391" y="-15" clip-path="url(#clipPath2)" stroke="none"/>
    </g>
    <g fill="silver" text-rendering="geometricPrecision" shape-rendering="geometricPrecision" transform="matrix(1,0,0,1,162,15)" stroke="silver">
      <rect x="219" width="223" height="142" y="808" clip-path="url(#clipPath2)" stroke="none"/>
    </g>
    <g text-rendering="geometricPrecision" stroke-miterlimit="1.45" shape-rendering="geometricPrecision" transform="matrix(1,0,0,1,162,15)" stroke-linecap="butt">
      <rect fill="none" x="219" width="223" height="142" y="808" clip-path="url(#clipPath2)"/>
    </g>
    <g font-size="14px" stroke-linecap="butt" transform="matrix(1,0,0,1,162,15) translate(231,815)" text-rendering="geometricPrecision" font-family="sans-serif" shape-rendering="geometricPrecision" font-weight="bold" stroke-miterlimit="1.45">
      <text x="0" xml:space="preserve" y="25" clip-path="url(#clipPath3)" stroke="none">Accreditation</text>
      <circle r="2" clip-path="url(#clipPath3)" cx="43" cy="60" stroke="none"/>
      <text x="50" font-size="12px" y="63" clip-path="url(#clipPath3)" stroke="none" font-weight="normal" xml:space="preserve">expiry date: dateTime [0,1]</text>
      <circle r="2" clip-path="url(#clipPath3)" cx="43" cy="77" stroke="none"/>
      <text x="50" font-size="12px" y="80" clip-path="url(#clipPath3)" stroke="none" font-weight="normal" xml:space="preserve">identifier: Identifier [0,1]</text>
      <circle r="2" clip-path="url(#clipPath3)" cx="43" cy="94" stroke="none"/>
      <text x="50" font-size="12px" y="97" clip-path="url(#clipPath3)" stroke="none" font-weight="normal" xml:space="preserve">title: langString [1,*]</text>
      <circle r="2" clip-path="url(#clipPath3)" cx="43" cy="111" stroke="none"/>
      <text x="50" font-size="12px" y="114" clip-path="url(#clipPath3)" stroke="none" font-weight="normal" xml:space="preserve">type: Concept [1,1]</text>
    </g>
    <g fill="silver" text-rendering="geometricPrecision" shape-rendering="geometricPrecision" transform="matrix(1,0,0,1,162,15)" stroke="silver">
      <rect x="-146.7003" width="232" height="125" y="0" clip-path="url(#clipPath2)" stroke="none"/>
    </g>
    <g text-rendering="geometricPrecision" stroke-miterlimit="1.45" shape-rendering="geometricPrecision" transform="matrix(1,0,0,1,162,15)" stroke-linecap="butt">
      <rect fill="none" x="-146.7003" width="232" height="125" y="0" clip-path="url(#clipPath2)"/>
    </g>
    <g font-size="14px" stroke-linecap="butt" transform="matrix(1,0,0,1,162,15) translate(-134,7)" text-rendering="geometricPrecision" font-family="sans-serif" shape-rendering="geometricPrecision" font-weight="bold" stroke-miterlimit="1.45">
      <text x="0" xml:space="preserve" y="25" clip-path="url(#clipPath4)" stroke="none">Concept</text>
      <circle r="2" clip-path="url(#clipPath4)" cx="43" cy="60" stroke="none"/>
      <text x="50" font-size="12px" y="63" clip-path="url(#clipPath4)" stroke="none" font-weight="normal" xml:space="preserve">alternative name: langString</text>
      <circle r="2" clip-path="url(#clipPath4)" cx="43" cy="77" stroke="none"/>
      <text x="50" font-size="12px" y="80" clip-path="url(#clipPath4)" stroke="none" font-weight="normal" xml:space="preserve">in scheme: ConceptScheme</text>
      <circle r="2" clip-path="url(#clipPath4)" cx="43" cy="94" stroke="none"/>
      <text x="50" font-size="12px" y="97" clip-path="url(#clipPath4)" stroke="none" font-weight="normal" xml:space="preserve">name: langString</text>
    </g>
    <g fill="silver" text-rendering="geometricPrecision" shape-rendering="geometricPrecision" transform="matrix(1,0,0,1,162,15)" stroke="silver">
      <rect x="170.25" width="209" height="108" y="1084" clip-path="url(#clipPath2)" stroke="none"/>
    </g>
    <g text-rendering="geometricPrecision" stroke-miterlimit="1.45" shape-rendering="geometricPrecision" transform="matrix(1,0,0,1,162,15)" stroke-linecap="butt">
      <rect fill="none" x="170.25" width="209" height="108" y="1084" clip-path="url(#clipPath2)"/>
    </g>
    <g font-size="14px" stroke-linecap="butt" transform="matrix(1,0,0,1,162,15) translate(182,1091)" text-rendering="geometricPrecision" font-family="sans-serif" shape-rendering="geometricPrecision" font-weight="bold" stroke-miterlimit="1.45">
      <text x="0" xml:space="preserve" y="25" clip-path="url(#clipPath5)" stroke="none">Organisation</text>
      <circle r="2" clip-path="url(#clipPath5)" cx="43" cy="60" stroke="none"/>
      <text x="50" font-size="12px" y="63" clip-path="url(#clipPath5)" stroke="none" font-weight="normal" xml:space="preserve">identifier: Identifier [0,1]</text>
      <circle r="2" clip-path="url(#clipPath5)" cx="43" cy="77" stroke="none"/>
      <text x="50" font-size="12px" y="80" clip-path="url(#clipPath5)" stroke="none" font-weight="normal" xml:space="preserve">name: langString [1,*]</text>
    </g>
    <g fill="silver" text-rendering="geometricPrecision" shape-rendering="geometricPrecision" transform="matrix(1,0,0,1,162,15)" stroke="silver">
      <rect x="-146.7003" width="287" height="108" y="249.5" clip-path="url(#clipPath2)" stroke="none"/>
    </g>
    <g text-rendering="geometricPrecision" stroke-miterlimit="1.45" shape-rendering="geometricPrecision" transform="matrix(1,0,0,1,162,15)" stroke-linecap="butt">
      <rect fill="none" x="-146.7003" width="287" height="108" y="249.5" clip-path="url(#clipPath2)"/>
    </g>
    <g font-size="14px" stroke-linecap="butt" transform="matrix(1,0,0,1,162,15) translate(-134,256)" text-rendering="geometricPrecision" font-family="sans-serif" shape-rendering="geometricPrecision" font-weight="bold" stroke-miterlimit="1.45">
      <text x="0" xml:space="preserve" y="25" clip-path="url(#clipPath6)" stroke="none">Identifier</text>
      <circle r="2" clip-path="url(#clipPath6)" cx="43" cy="60" stroke="none"/>
      <text x="50" font-size="12px" y="63" clip-path="url(#clipPath6)" stroke="none" font-weight="normal" xml:space="preserve">scheme agency name: langString [0,1]</text>
      <circle r="2" clip-path="url(#clipPath6)" cx="43" cy="77" stroke="none"/>
      <text x="50" font-size="12px" y="80" clip-path="url(#clipPath6)" stroke="none" font-weight="normal" xml:space="preserve">scheme name: string [0,1]</text>
    </g>
    <g fill="silver" text-rendering="geometricPrecision" shape-rendering="geometricPrecision" transform="matrix(1,0,0,1,162,15)" stroke="silver">
      <rect x="99.5" width="209" height="108" y="685" clip-path="url(#clipPath2)" stroke="none"/>
    </g>
    <g text-rendering="geometricPrecision" stroke-miterlimit="1.45" shape-rendering="geometricPrecision" transform="matrix(1,0,0,1,162,15)" stroke-linecap="butt">
      <rect fill="none" x="99.5" width="209" height="108" y="685" clip-path="url(#clipPath2)"/>
    </g>
    <g font-size="14px" stroke-linecap="butt" transform="matrix(1,0,0,1,162,15) translate(111,692)" text-rendering="geometricPrecision" font-family="sans-serif" shape-rendering="geometricPrecision" font-weight="bold" stroke-miterlimit="1.45">
      <text x="0" xml:space="preserve" y="25" clip-path="url(#clipPath5)" stroke="none">AwardingOpportunity</text>
      <circle r="2" clip-path="url(#clipPath5)" cx="43" cy="60" stroke="none"/>
      <text x="50" font-size="12px" y="63" clip-path="url(#clipPath5)" stroke="none" font-weight="normal" xml:space="preserve">identifier: Identifier [0,1]</text>
      <circle r="2" clip-path="url(#clipPath5)" cx="43" cy="77" stroke="none"/>
      <text x="50" font-size="12px" y="80" clip-path="url(#clipPath5)" stroke="none" font-weight="normal" xml:space="preserve">more information: Note</text>
    </g>
    <g fill="silver" text-rendering="geometricPrecision" shape-rendering="geometricPrecision" transform="matrix(1,0,0,1,162,15)" stroke="silver">
      <rect x="-146.7003" width="225" height="125" y="376" clip-path="url(#clipPath2)" stroke="none"/>
    </g>
    <g text-rendering="geometricPrecision" stroke-miterlimit="1.45" shape-rendering="geometricPrecision" transform="matrix(1,0,0,1,162,15)" stroke-linecap="butt">
      <rect fill="none" x="-146.7003" width="225" height="125" y="376" clip-path="url(#clipPath2)"/>
    </g>
    <g font-size="14px" stroke-linecap="butt" transform="matrix(1,0,0,1,162,15) translate(-134,383)" text-rendering="geometricPrecision" font-family="sans-serif" shape-rendering="geometricPrecision" font-weight="bold" stroke-miterlimit="1.45">
      <text x="0" xml:space="preserve" y="25" clip-path="url(#clipPath7)" stroke="none">Note</text>
      <circle r="2" clip-path="url(#clipPath7)" cx="43" cy="60" stroke="none"/>
      <text x="50" font-size="12px" y="63" clip-path="url(#clipPath7)" stroke="none" font-weight="normal" xml:space="preserve">note format: Concept [0,1]</text>
      <circle r="2" clip-path="url(#clipPath7)" cx="43" cy="77" stroke="none"/>
      <text x="50" font-size="12px" y="80" clip-path="url(#clipPath7)" stroke="none" font-weight="normal" xml:space="preserve">note literal: langString [1,*]</text>
      <circle r="2" clip-path="url(#clipPath7)" cx="43" cy="94" stroke="none"/>
      <text x="50" font-size="12px" y="97" clip-path="url(#clipPath7)" stroke="none" font-weight="normal" xml:space="preserve">subject: Concept [0,1]</text>
    </g>
    <g fill="silver" text-rendering="geometricPrecision" shape-rendering="geometricPrecision" transform="matrix(1,0,0,1,162,15)" stroke="silver">
      <rect x="349.5" width="215" height="108" y="685" clip-path="url(#clipPath2)" stroke="none"/>
    </g>
    <g text-rendering="geometricPrecision" stroke-miterlimit="1.45" shape-rendering="geometricPrecision" transform="matrix(1,0,0,1,162,15)" stroke-linecap="butt">
      <rect fill="none" x="349.5" width="215" height="108" y="685" clip-path="url(#clipPath2)"/>
    </g>
    <g font-size="14px" stroke-linecap="butt" transform="matrix(1,0,0,1,162,15) translate(361,692)" text-rendering="geometricPrecision" font-family="sans-serif" shape-rendering="geometricPrecision" font-weight="bold" stroke-miterlimit="1.45">
      <text x="0" xml:space="preserve" y="25" clip-path="url(#clipPath8)" stroke="none">CreditPoint</text>
      <circle r="2" clip-path="url(#clipPath8)" cx="43" cy="60" stroke="none"/>
      <text x="50" font-size="12px" y="63" clip-path="url(#clipPath8)" stroke="none" font-weight="normal" xml:space="preserve">framework: Concept [0,1]</text>
      <circle r="2" clip-path="url(#clipPath8)" cx="43" cy="77" stroke="none"/>
      <text x="50" font-size="12px" y="80" clip-path="url(#clipPath8)" stroke="none" font-weight="normal" xml:space="preserve">point: double [1,1]</text>
    </g>
    <g fill="silver" text-rendering="geometricPrecision" shape-rendering="geometricPrecision" transform="matrix(1,0,0,1,162,15)" stroke="silver">
      <rect x="594.5" width="262" height="108" y="685" clip-path="url(#clipPath2)" stroke="none"/>
    </g>
    <g text-rendering="geometricPrecision" stroke-miterlimit="1.45" shape-rendering="geometricPrecision" transform="matrix(1,0,0,1,162,15)" stroke-linecap="butt">
      <rect fill="none" x="594.5" width="262" height="108" y="685" clip-path="url(#clipPath2)"/>
    </g>
    <g font-size="14px" stroke-linecap="butt" transform="matrix(1,0,0,1,162,15) translate(606,692)" text-rendering="geometricPrecision" font-family="sans-serif" shape-rendering="geometricPrecision" font-weight="bold" stroke-miterlimit="1.45">
      <text x="0" xml:space="preserve" y="25" clip-path="url(#clipPath9)" stroke="none">LearningEntitlementSpecification</text>
      <circle r="2" clip-path="url(#clipPath9)" cx="43" cy="60" stroke="none"/>
      <text x="50" font-size="12px" y="63" clip-path="url(#clipPath9)" stroke="none" font-weight="normal" xml:space="preserve">identifier: Identifier [0,1]</text>
      <circle r="2" clip-path="url(#clipPath9)" cx="43" cy="77" stroke="none"/>
      <text x="50" font-size="12px" y="80" clip-path="url(#clipPath9)" stroke="none" font-weight="normal" xml:space="preserve">limit national occupation: Concept</text>
    </g>
    <g fill="silver" text-rendering="geometricPrecision" shape-rendering="geometricPrecision" transform="matrix(1,0,0,1,162,15)" stroke="silver">
      <rect x="652.25" width="248" height="125" y="0" clip-path="url(#clipPath2)" stroke="none"/>
    </g>
    <g text-rendering="geometricPrecision" stroke-miterlimit="1.45" shape-rendering="geometricPrecision" transform="matrix(1,0,0,1,162,15)" stroke-linecap="butt">
      <rect fill="none" x="652.25" width="248" height="125" y="0" clip-path="url(#clipPath2)"/>
    </g>
    <g font-size="14px" stroke-linecap="butt" transform="matrix(1,0,0,1,162,15) translate(664,7)" text-rendering="geometricPrecision" font-family="sans-serif" shape-rendering="geometricPrecision" font-weight="bold" stroke-miterlimit="1.45">
      <text x="0" xml:space="preserve" y="25" clip-path="url(#clipPath10)" stroke="none">LearningOpportunity</text>
      <circle r="2" clip-path="url(#clipPath10)" cx="43" cy="60" stroke="none"/>
      <text x="50" font-size="12px" y="63" clip-path="url(#clipPath10)" stroke="none" font-weight="normal" xml:space="preserve">default language: Concept [1,1]</text>
      <circle r="2" clip-path="url(#clipPath10)" cx="43" cy="77" stroke="none"/>
      <text x="50" font-size="12px" y="80" clip-path="url(#clipPath10)" stroke="none" font-weight="normal" xml:space="preserve">identifier: Identifier [0,1]</text>
      <circle r="2" clip-path="url(#clipPath10)" cx="43" cy="94" stroke="none"/>
      <text x="50" font-size="12px" y="97" clip-path="url(#clipPath10)" stroke="none" font-weight="normal" xml:space="preserve">title: langString [1,*]</text>
    </g>
    <g fill="silver" text-rendering="geometricPrecision" shape-rendering="geometricPrecision" transform="matrix(1,0,0,1,162,15)" stroke="silver">
      <rect x="288.4167" width="289" height="193" y="342" clip-path="url(#clipPath2)" stroke="none"/>
    </g>
    <g text-rendering="geometricPrecision" stroke-miterlimit="1.45" shape-rendering="geometricPrecision" transform="matrix(1,0,0,1,162,15)" stroke-linecap="butt">
      <rect fill="none" x="288.4167" width="289" height="193" y="342" clip-path="url(#clipPath2)"/>
    </g>
    <g font-size="14px" stroke-linecap="butt" transform="matrix(1,0,0,1,162,15) translate(300,349)" text-rendering="geometricPrecision" font-family="sans-serif" shape-rendering="geometricPrecision" font-weight="bold" stroke-miterlimit="1.45">
      <text x="0" xml:space="preserve" y="25" clip-path="url(#clipPath11)" stroke="none">Qualification</text>
      <circle r="2" clip-path="url(#clipPath11)" cx="43" cy="60" stroke="none"/>
      <text x="50" font-size="12px" y="63" clip-path="url(#clipPath11)" stroke="none" font-weight="normal" xml:space="preserve">education level: Concept</text>
      <circle r="2" clip-path="url(#clipPath11)" cx="43" cy="77" stroke="none"/>
      <text x="50" font-size="12px" y="80" clip-path="url(#clipPath11)" stroke="none" font-weight="normal" xml:space="preserve">homepage: WebResource</text>
      <circle r="2" clip-path="url(#clipPath11)" cx="43" cy="94" stroke="none"/>
      <text x="50" font-size="12px" y="97" clip-path="url(#clipPath11)" stroke="none" font-weight="normal" xml:space="preserve">identifier: Identifier [0,1]</text>
      <circle r="2" clip-path="url(#clipPath11)" cx="43" cy="111" stroke="none"/>
      <text x="50" font-size="12px" y="114" clip-path="url(#clipPath11)" stroke="none" font-weight="normal" xml:space="preserve">learning outcome summary: Note [0,1]</text>
      <circle r="2" clip-path="url(#clipPath11)" cx="43" cy="128" stroke="none"/>
      <text x="50" font-size="12px" y="131" clip-path="url(#clipPath11)" stroke="none" font-weight="normal" xml:space="preserve">other documents: WebResource [1,*]</text>
      <circle r="2" clip-path="url(#clipPath11)" cx="43" cy="145" stroke="none"/>
      <text x="50" font-size="12px" y="148" clip-path="url(#clipPath11)" stroke="none" font-weight="normal" xml:space="preserve">thematic area: Concept</text>
      <circle r="2" clip-path="url(#clipPath11)" cx="43" cy="162" stroke="none"/>
      <text x="50" font-size="12px" y="165" clip-path="url(#clipPath11)" stroke="none" font-weight="normal" xml:space="preserve">title: langString [1,*]</text>
    </g>
    <g fill="silver" text-rendering="geometricPrecision" shape-rendering="geometricPrecision" transform="matrix(1,0,0,1,162,15)" stroke="silver">
      <rect x="475" width="209" height="142" y="808" clip-path="url(#clipPath2)" stroke="none"/>
    </g>
    <g text-rendering="geometricPrecision" stroke-miterlimit="1.45" shape-rendering="geometricPrecision" transform="matrix(1,0,0,1,162,15)" stroke-linecap="butt">
      <rect fill="none" x="475" width="209" height="142" y="808" clip-path="url(#clipPath2)"/>
    </g>
    <g font-size="14px" stroke-linecap="butt" transform="matrix(1,0,0,1,162,15) translate(487,815)" text-rendering="geometricPrecision" font-family="sans-serif" shape-rendering="geometricPrecision" font-weight="bold" stroke-miterlimit="1.45">
      <text x="0" xml:space="preserve" y="25" clip-path="url(#clipPath12)" stroke="none">LearningOutcome</text>
      <circle r="2" clip-path="url(#clipPath12)" cx="43" cy="60" stroke="none"/>
      <text x="50" font-size="12px" y="63" clip-path="url(#clipPath12)" stroke="none" font-weight="normal" xml:space="preserve">identifier: Identifier [0,1]</text>
      <circle r="2" clip-path="url(#clipPath12)" cx="43" cy="77" stroke="none"/>
      <text x="50" font-size="12px" y="80" clip-path="url(#clipPath12)" stroke="none" font-weight="normal" xml:space="preserve">more information: Note</text>
      <circle r="2" clip-path="url(#clipPath12)" cx="43" cy="94" stroke="none"/>
      <text x="50" font-size="12px" y="97" clip-path="url(#clipPath12)" stroke="none" font-weight="normal" xml:space="preserve">related skill(s): Concept</text>
      <circle r="2" clip-path="url(#clipPath12)" cx="43" cy="111" stroke="none"/>
      <text x="50" font-size="12px" y="114" clip-path="url(#clipPath12)" stroke="none" font-weight="normal" xml:space="preserve">title: langString [1,*]</text>
    </g>
    <g fill="silver" text-rendering="geometricPrecision" shape-rendering="geometricPrecision" transform="matrix(1,0,0,1,162,15)" stroke="silver">
      <rect x="164.25" width="221" height="108" y="1253" clip-path="url(#clipPath2)" stroke="none"/>
    </g>
    <g text-rendering="geometricPrecision" stroke-miterlimit="1.45" shape-rendering="geometricPrecision" transform="matrix(1,0,0,1,162,15)" stroke-linecap="butt">
      <rect fill="none" x="164.25" width="221" height="108" y="1253" clip-path="url(#clipPath2)"/>
    </g>
    <g font-size="14px" stroke-linecap="butt" transform="matrix(1,0,0,1,162,15) translate(176,1260)" text-rendering="geometricPrecision" font-family="sans-serif" shape-rendering="geometricPrecision" font-weight="bold" stroke-miterlimit="1.45">
      <text x="0" xml:space="preserve" y="25" clip-path="url(#clipPath13)" stroke="none">Location</text>
      <circle r="2" clip-path="url(#clipPath13)" cx="43" cy="60" stroke="none"/>
      <text x="50" font-size="12px" y="63" clip-path="url(#clipPath13)" stroke="none" font-weight="normal" xml:space="preserve">identifier: Identifier [0,1]</text>
      <circle r="2" clip-path="url(#clipPath13)" cx="43" cy="77" stroke="none"/>
      <text x="50" font-size="12px" y="80" clip-path="url(#clipPath13)" stroke="none" font-weight="normal" xml:space="preserve">spatial code: Concept [1,*]</text>
    </g>
    <g fill="silver" text-rendering="geometricPrecision" shape-rendering="geometricPrecision" transform="matrix(1,0,0,1,162,15)" stroke="silver">
      <rect x="-146.7003" width="170" height="91" y="140" clip-path="url(#clipPath2)" stroke="none"/>
    </g>
    <g text-rendering="geometricPrecision" stroke-miterlimit="1.45" shape-rendering="geometricPrecision" transform="matrix(1,0,0,1,162,15)" stroke-linecap="butt">
      <rect fill="none" x="-146.7003" width="170" height="91" y="140" clip-path="url(#clipPath2)"/>
    </g>
    <g font-size="14px" stroke-linecap="butt" transform="matrix(1,0,0,1,162,15) translate(-134,147)" text-rendering="geometricPrecision" font-family="sans-serif" shape-rendering="geometricPrecision" font-weight="bold" stroke-miterlimit="1.45">
      <text x="0" xml:space="preserve" y="25" clip-path="url(#clipPath14)" stroke="none">WebResource</text>
      <circle r="2" clip-path="url(#clipPath14)" cx="43" cy="60" stroke="none"/>
      <text x="50" font-size="12px" y="63" clip-path="url(#clipPath14)" stroke="none" font-weight="normal" xml:space="preserve">URL: anyURI [1,1]</text>
    </g>
    <g text-rendering="geometricPrecision" stroke-miterlimit="1.45" shape-rendering="geometricPrecision" transform="matrix(1,0,0,1,162,15)" stroke-linecap="butt">
      <path fill="none" d="M274.75 950 L274.75 1075.9673" clip-path="url(#clipPath2)"/>
      <path d="M274.75 1083.9673 L279.75 1071.9673 L274.75 1074.9673 L269.75 1071.9673 Z" clip-path="url(#clipPath2)" stroke="none"/>
    </g>
    <g text-rendering="geometricPrecision" stroke-miterlimit="1.45" shape-rendering="geometricPrecision" font-family="sans-serif" transform="matrix(1,0,0,1,162,15) translate(239,1018)" stroke-linecap="butt">
      <text x="0" xml:space="preserve" y="13" clip-path="url(#clipPath15)" stroke="none">organisation</text>
    </g>
    <g text-rendering="geometricPrecision" stroke-miterlimit="1.45" shape-rendering="geometricPrecision" transform="matrix(1,0,0,1,162,15)" stroke-linecap="butt">
      <path fill="none" d="M386.25 950 L386.25 1052.5 L316.55 1052.5 L316.55 1075.9692" clip-path="url(#clipPath2)"/>
      <path d="M316.55 1083.9692 L321.55 1071.9692 L316.55 1074.9692 L311.55 1071.9692 Z" clip-path="url(#clipPath2)" stroke="none"/>
    </g>
    <g text-rendering="geometricPrecision" stroke-miterlimit="1.45" shape-rendering="geometricPrecision" font-family="sans-serif" transform="matrix(1,0,0,1,162,15) translate(304,977)" stroke-linecap="butt">
      <text x="0" xml:space="preserve" y="13" clip-path="url(#clipPath16)" stroke="none">accrediting organisation [1,1]</text>
    </g>
    <g text-rendering="geometricPrecision" stroke-miterlimit="1.45" shape-rendering="geometricPrecision" transform="matrix(1,0,0,1,162,15)" stroke-linecap="butt">
      <path fill="none" d="M204 793 L204 1052.5 L232.95 1052.5 L232.95 1075.9692" clip-path="url(#clipPath2)"/>
      <path d="M232.95 1083.9692 L237.95 1071.9692 L232.95 1074.9692 L227.95 1071.9692 Z" clip-path="url(#clipPath2)" stroke="none"/>
    </g>
    <g text-rendering="geometricPrecision" stroke-miterlimit="1.45" shape-rendering="geometricPrecision" font-family="sans-serif" transform="matrix(1,0,0,1,162,15) translate(163,977)" stroke-linecap="butt">
      <text x="0" xml:space="preserve" y="13" clip-path="url(#clipPath17)" stroke="none">awarding body</text>
    </g>
    <g text-rendering="geometricPrecision" stroke-miterlimit="1.45" shape-rendering="geometricPrecision" transform="matrix(1,0,0,1,162,15)" stroke-linecap="butt">
      <path fill="none" d="M838.25 125 L838.25 140.5 L872 140.5 L872 1068.5 L358.35 1068.5 L358.35 1075.9697" clip-path="url(#clipPath2)"/>
      <path d="M358.35 1083.9697 L363.35 1071.9697 L358.35 1074.9697 L353.35 1071.9697 Z" clip-path="url(#clipPath2)" stroke="none"/>
    </g>
    <g text-rendering="geometricPrecision" stroke-miterlimit="1.45" shape-rendering="geometricPrecision" font-family="sans-serif" transform="matrix(1,0,0,1,162,15) translate(825,651)" stroke-linecap="butt">
      <text x="0" xml:space="preserve" y="13" clip-path="url(#clipPath18)" stroke="none">provided by [1,*]</text>
    </g>
    <g text-rendering="geometricPrecision" stroke-miterlimit="1.45" shape-rendering="geometricPrecision" transform="matrix(1,0,0,1,162,15)" stroke-linecap="butt">
      <path fill="none" d="M714.25 125 L714.25 280.5 L432.9167 280.5 L432.9167 333.97" clip-path="url(#clipPath2)"/>
      <path d="M432.9167 341.97 L437.9167 329.97 L432.9167 332.97 L427.9167 329.97 Z" clip-path="url(#clipPath2)" stroke="none"/>
    </g>
    <g text-rendering="geometricPrecision" stroke-miterlimit="1.45" shape-rendering="geometricPrecision" font-family="sans-serif" transform="matrix(1,0,0,1,162,15) translate(384,308)" stroke-linecap="butt">
      <text x="0" xml:space="preserve" y="13" clip-path="url(#clipPath19)" stroke="none">qualification [1,1]</text>
    </g>
    <g text-rendering="geometricPrecision" stroke-miterlimit="1.45" shape-rendering="geometricPrecision" transform="matrix(1,0,0,1,162,15)" stroke-linecap="butt">
      <path fill="none" d="M312.5 535 L312.5 550.5 L42 550.5 L42 1068.5 L191.15 1068.5 L191.15 1075.9697" clip-path="url(#clipPath2)"/>
      <path d="M191.15 1083.9697 L196.15 1071.9697 L191.15 1074.9697 L186.15 1071.9697 Z" clip-path="url(#clipPath2)" stroke="none"/>
    </g>
    <g text-rendering="geometricPrecision" stroke-miterlimit="1.45" shape-rendering="geometricPrecision" font-family="sans-serif" transform="matrix(1,0,0,1,162,15) translate(1,735)" stroke-linecap="butt">
      <text x="0" xml:space="preserve" y="13" clip-path="url(#clipPath20)" stroke="none">publisher [1,1]</text>
    </g>
    <g text-rendering="geometricPrecision" stroke-miterlimit="1.45" shape-rendering="geometricPrecision" transform="matrix(1,0,0,1,162,15)" stroke-linecap="butt">
      <path fill="none" d="M553.3333 535 L553.3333 550.5 L725.5 550.5 L725.5 676.9672" clip-path="url(#clipPath2)"/>
      <path d="M725.5 684.9672 L730.5 672.9672 L725.5 675.9672 L720.5 672.9672 Z" clip-path="url(#clipPath2)" stroke="none"/>
    </g>
    <g text-rendering="geometricPrecision" stroke-miterlimit="1.45" shape-rendering="geometricPrecision" font-family="sans-serif" transform="matrix(1,0,0,1,162,15) translate(696,610)" stroke-linecap="butt">
      <text x="0" xml:space="preserve" y="13" clip-path="url(#clipPath21)" stroke="none">entitles To</text>
    </g>
    <g text-rendering="geometricPrecision" stroke-miterlimit="1.45" shape-rendering="geometricPrecision" transform="matrix(1,0,0,1,162,15)" stroke-linecap="butt">
      <path fill="none" d="M457 535 L457 676.9634" clip-path="url(#clipPath2)"/>
      <path d="M457 684.9634 L462 672.9634 L457 675.9634 L452 672.9634 Z" clip-path="url(#clipPath2)" stroke="none"/>
    </g>
    <g text-rendering="geometricPrecision" stroke-miterlimit="1.45" shape-rendering="geometricPrecision" font-family="sans-serif" transform="matrix(1,0,0,1,162,15) translate(422,610)" stroke-linecap="butt">
      <text x="0" xml:space="preserve" y="13" clip-path="url(#clipPath22)" stroke="none">credit points</text>
    </g>
    <g text-rendering="geometricPrecision" stroke-miterlimit="1.45" shape-rendering="geometricPrecision" transform="matrix(1,0,0,1,162,15)" stroke-linecap="butt">
      <path fill="none" d="M360.6667 535 L360.6667 566.5 L204 566.5 L204 676.9711" clip-path="url(#clipPath2)"/>
      <path d="M204 684.9711 L209 672.9711 L204 675.9711 L199 672.9711 Z" clip-path="url(#clipPath2)" stroke="none"/>
    </g>
    <g text-rendering="geometricPrecision" stroke-miterlimit="1.45" shape-rendering="geometricPrecision" font-family="sans-serif" transform="matrix(1,0,0,1,162,15) translate(130,610)" stroke-linecap="butt">
      <text x="0" xml:space="preserve" y="13" clip-path="url(#clipPath23)" stroke="none">awarding information [1,*]</text>
    </g>
    <g text-rendering="geometricPrecision" stroke-miterlimit="1.45" shape-rendering="geometricPrecision" transform="matrix(1,0,0,1,162,15)" stroke-linecap="butt">
      <path fill="none" d="M408.8333 535 L408.8333 582.5 L330.5 582.5 L330.5 799.9725" clip-path="url(#clipPath2)"/>
      <path d="M330.5 807.9725 L335.5 795.9725 L330.5 798.9725 L325.5 795.9725 Z" clip-path="url(#clipPath2)" stroke="none"/>
    </g>
    <g text-rendering="geometricPrecision" stroke-miterlimit="1.45" shape-rendering="geometricPrecision" font-family="sans-serif" transform="matrix(1,0,0,1,162,15) translate(293,651)" stroke-linecap="butt">
      <text x="0" xml:space="preserve" y="13" clip-path="url(#clipPath24)" stroke="none">accreditation</text>
    </g>
    <g text-rendering="geometricPrecision" stroke-miterlimit="1.45" shape-rendering="geometricPrecision" transform="matrix(1,0,0,1,162,15)" stroke-linecap="butt">
      <path fill="none" d="M505.1667 535 L505.1667 566.5 L579.5 566.5 L579.5 799.9705" clip-path="url(#clipPath2)"/>
      <path d="M579.5 807.9705 L584.5 795.9705 L579.5 798.9705 L574.5 795.9705 Z" clip-path="url(#clipPath2)" stroke="none"/>
    </g>
    <g text-rendering="geometricPrecision" stroke-miterlimit="1.45" shape-rendering="geometricPrecision" font-family="sans-serif" transform="matrix(1,0,0,1,162,15) translate(516,651)" stroke-linecap="butt">
      <text x="0" xml:space="preserve" y="13" clip-path="url(#clipPath25)" stroke="none">learning outcome [1,*]</text>
    </g>
    <g text-rendering="geometricPrecision" stroke-miterlimit="1.45" shape-rendering="geometricPrecision" transform="matrix(1,0,0,1,162,15)" stroke-linecap="butt">
      <path fill="none" d="M274.75 1192 L274.75 1244.9702" clip-path="url(#clipPath2)"/>
      <path d="M274.75 1252.9702 L279.75 1240.9702 L274.75 1243.9702 L269.75 1240.9702 Z" clip-path="url(#clipPath2)" stroke="none"/>
    </g>
    <g text-rendering="geometricPrecision" stroke-miterlimit="1.45" shape-rendering="geometricPrecision" font-family="sans-serif" transform="matrix(1,0,0,1,162,15) translate(238,1219)" stroke-linecap="butt">
      <text x="0" xml:space="preserve" y="13" clip-path="url(#clipPath26)" stroke="none">location [1,*]</text>
    </g>
  </g>
</svg>
