<?xml version="1.0" encoding="UTF-8"?><svg xmlns="http://www.w3.org/2000/svg" xmlns:xlink="http://www.w3.org/1999/xlink" fill-opacity="1" color-rendering="auto" color-interpolation="auto" text-rendering="auto" stroke="black" stroke-linecap="square" width="1338" stroke-miterlimit="10" shape-rendering="auto" stroke-opacity="1" fill="black" stroke-dasharray="none" font-weight="normal" stroke-width="1" height="1133" font-family="'Dialog'" font-style="normal" stroke-linejoin="miter" font-size="12px" stroke-dashoffset="0" image-rendering="auto">
  <!--Generated by ySVG 2.6-->
  <defs id="genericDefs"/>
  <g>
    <defs id="defs1">
      <clipPath clipPathUnits="userSpaceOnUse" id="clipPath1">
        <path d="M0 0 L1338 0 L1338 1133 L0 1133 L0 0 Z"/>
      </clipPath>
      <clipPath clipPathUnits="userSpaceOnUse" id="clipPath2">
        <path d="M189 108 L1527 108 L1527 1241 L189 1241 L189 108 Z"/>
      </clipPath>
      <clipPath clipPathUnits="userSpaceOnUse" id="clipPath3">
        <path d="M0 0 L0 117 L219 117 L219 0 Z"/>
      </clipPath>
      <clipPath clipPathUnits="userSpaceOnUse" id="clipPath4">
        <path d="M0 0 L0 102 L228 102 L228 0 Z"/>
      </clipPath>
      <clipPath clipPathUnits="userSpaceOnUse" id="clipPath5">
        <path d="M0 0 L0 87 L189 87 L189 0 Z"/>
      </clipPath>
      <clipPath clipPathUnits="userSpaceOnUse" id="clipPath6">
        <path d="M0 0 L0 87 L293 87 L293 0 Z"/>
      </clipPath>
      <clipPath clipPathUnits="userSpaceOnUse" id="clipPath7">
        <path d="M0 0 L0 87 L195 87 L195 0 Z"/>
      </clipPath>
      <clipPath clipPathUnits="userSpaceOnUse" id="clipPath8">
        <path d="M0 0 L0 102 L222 102 L222 0 Z"/>
      </clipPath>
      <clipPath clipPathUnits="userSpaceOnUse" id="clipPath9">
        <path d="M0 0 L0 37 L129 37 L129 0 Z"/>
      </clipPath>
      <clipPath clipPathUnits="userSpaceOnUse" id="clipPath10">
        <path d="M0 0 L0 87 L209 87 L209 0 Z"/>
      </clipPath>
      <clipPath clipPathUnits="userSpaceOnUse" id="clipPath11">
        <path d="M0 0 L0 87 L264 87 L264 0 Z"/>
      </clipPath>
      <clipPath clipPathUnits="userSpaceOnUse" id="clipPath12">
        <path d="M0 0 L0 102 L251 102 L251 0 Z"/>
      </clipPath>
      <clipPath clipPathUnits="userSpaceOnUse" id="clipPath13">
        <path d="M0 0 L0 162 L292 162 L292 0 Z"/>
      </clipPath>
      <clipPath clipPathUnits="userSpaceOnUse" id="clipPath14">
        <path d="M0 0 L0 117 L199 117 L199 0 Z"/>
      </clipPath>
      <clipPath clipPathUnits="userSpaceOnUse" id="clipPath15">
        <path d="M0 0 L0 87 L219 87 L219 0 Z"/>
      </clipPath>
      <clipPath clipPathUnits="userSpaceOnUse" id="clipPath16">
        <path d="M0 0 L0 72 L157 72 L157 0 Z"/>
      </clipPath>
      <clipPath clipPathUnits="userSpaceOnUse" id="clipPath17">
        <path d="M0 0 L0 15 L111 15 L111 0 Z"/>
      </clipPath>
      <clipPath clipPathUnits="userSpaceOnUse" id="clipPath18">
        <path d="M0 0 L0 15 L187 15 L187 0 Z"/>
      </clipPath>
      <clipPath clipPathUnits="userSpaceOnUse" id="clipPath19">
        <path d="M0 0 L0 15 L91 15 L91 0 Z"/>
      </clipPath>
      <clipPath clipPathUnits="userSpaceOnUse" id="clipPath20">
        <path d="M0 0 L0 15 L104 15 L104 0 Z"/>
      </clipPath>
      <clipPath clipPathUnits="userSpaceOnUse" id="clipPath21">
        <path d="M0 0 L0 15 L110 15 L110 0 Z"/>
      </clipPath>
      <clipPath clipPathUnits="userSpaceOnUse" id="clipPath22">
        <path d="M0 0 L0 15 L92 15 L92 0 Z"/>
      </clipPath>
      <clipPath clipPathUnits="userSpaceOnUse" id="clipPath23">
        <path d="M0 0 L0 15 L66 15 L66 0 Z"/>
      </clipPath>
      <clipPath clipPathUnits="userSpaceOnUse" id="clipPath24">
        <path d="M0 0 L0 15 L79 15 L79 0 Z"/>
      </clipPath>
      <clipPath clipPathUnits="userSpaceOnUse" id="clipPath25">
        <path d="M0 0 L0 15 L164 15 L164 0 Z"/>
      </clipPath>
      <clipPath clipPathUnits="userSpaceOnUse" id="clipPath26">
        <path d="M0 0 L0 15 L83 15 L83 0 Z"/>
      </clipPath>
      <clipPath clipPathUnits="userSpaceOnUse" id="clipPath27">
        <path d="M0 0 L0 15 L142 15 L142 0 Z"/>
      </clipPath>
      <clipPath clipPathUnits="userSpaceOnUse" id="clipPath28">
        <path d="M0 0 L0 15 L82 15 L82 0 Z"/>
      </clipPath>
    </defs>
    <g fill="white" text-rendering="geometricPrecision" shape-rendering="geometricPrecision" transform="translate(-189,-108)" stroke="white">
      <rect x="189" width="1338" height="1133" y="108" clip-path="url(#clipPath2)" stroke="none"/>
    </g>
    <g fill="silver" text-rendering="geometricPrecision" shape-rendering="geometricPrecision" transform="matrix(1,0,0,1,-189,-108)" stroke="silver">
      <rect x="774.75" width="233" height="123" y="728" clip-path="url(#clipPath2)" stroke="none"/>
    </g>
    <g text-rendering="geometricPrecision" stroke-miterlimit="1.45" shape-rendering="geometricPrecision" transform="matrix(1,0,0,1,-189,-108)" stroke-linecap="butt">
      <rect fill="none" x="774.75" width="233" height="123" y="728" clip-path="url(#clipPath2)"/>
    </g>
    <g font-size="14px" stroke-linecap="butt" transform="matrix(1,0,0,1,-189,-108) translate(781,731)" text-rendering="geometricPrecision" font-family="sans-serif" shape-rendering="geometricPrecision" font-weight="bold" stroke-miterlimit="1.45">
      <text x="0" xml:space="preserve" y="23" clip-path="url(#clipPath3)" stroke="none">Accreditation</text>
      <circle r="2" clip-path="url(#clipPath3)" cx="43" cy="56" stroke="none"/>
      <text x="50" font-size="12px" y="59" clip-path="url(#clipPath3)" stroke="none" font-weight="normal" xml:space="preserve">expiry date: dateTime [0,1]</text>
      <circle r="2" clip-path="url(#clipPath3)" cx="43" cy="71" stroke="none"/>
      <text x="50" font-size="12px" y="74" clip-path="url(#clipPath3)" stroke="none" font-weight="normal" xml:space="preserve">identifier: Identifier</text>
      <circle r="2" clip-path="url(#clipPath3)" cx="43" cy="86" stroke="none"/>
      <text x="50" font-size="12px" y="89" clip-path="url(#clipPath3)" stroke="none" font-weight="normal" xml:space="preserve">title: langString [1,*]</text>
      <circle r="2" clip-path="url(#clipPath3)" cx="43" cy="101" stroke="none"/>
      <text x="50" font-size="12px" y="104" clip-path="url(#clipPath3)" stroke="none" font-weight="normal" xml:space="preserve">type: Concept [1,1]</text>
    </g>
    <g fill="silver" text-rendering="geometricPrecision" shape-rendering="geometricPrecision" transform="matrix(1,0,0,1,-189,-108)" stroke="silver">
      <rect x="204.5211" width="242" height="108" y="123" clip-path="url(#clipPath2)" stroke="none"/>
    </g>
    <g text-rendering="geometricPrecision" stroke-miterlimit="1.45" shape-rendering="geometricPrecision" transform="matrix(1,0,0,1,-189,-108)" stroke-linecap="butt">
      <rect fill="none" x="204.5211" width="242" height="108" y="123" clip-path="url(#clipPath2)"/>
    </g>
    <g font-size="14px" stroke-linecap="butt" transform="matrix(1,0,0,1,-189,-108) translate(211,126)" text-rendering="geometricPrecision" font-family="sans-serif" shape-rendering="geometricPrecision" font-weight="bold" stroke-miterlimit="1.45">
      <text x="0" xml:space="preserve" y="23" clip-path="url(#clipPath4)" stroke="none">Concept</text>
      <circle r="2" clip-path="url(#clipPath4)" cx="43" cy="56" stroke="none"/>
      <text x="50" font-size="12px" y="59" clip-path="url(#clipPath4)" stroke="none" font-weight="normal" xml:space="preserve">alternative name: langString</text>
      <circle r="2" clip-path="url(#clipPath4)" cx="43" cy="71" stroke="none"/>
      <text x="50" font-size="12px" y="74" clip-path="url(#clipPath4)" stroke="none" font-weight="normal" xml:space="preserve">in scheme: ConceptScheme</text>
      <circle r="2" clip-path="url(#clipPath4)" cx="43" cy="86" stroke="none"/>
      <text x="50" font-size="12px" y="89" clip-path="url(#clipPath4)" stroke="none" font-weight="normal" xml:space="preserve">name: langString</text>
    </g>
    <g fill="silver" text-rendering="geometricPrecision" shape-rendering="geometricPrecision" transform="matrix(1,0,0,1,-189,-108)" stroke="silver">
      <rect x="731.5" width="203" height="93" y="981" clip-path="url(#clipPath2)" stroke="none"/>
    </g>
    <g text-rendering="geometricPrecision" stroke-miterlimit="1.45" shape-rendering="geometricPrecision" transform="matrix(1,0,0,1,-189,-108)" stroke-linecap="butt">
      <rect fill="none" x="731.5" width="203" height="93" y="981" clip-path="url(#clipPath2)"/>
    </g>
    <g font-size="14px" stroke-linecap="butt" transform="matrix(1,0,0,1,-189,-108) translate(738,984)" text-rendering="geometricPrecision" font-family="sans-serif" shape-rendering="geometricPrecision" font-weight="bold" stroke-miterlimit="1.45">
      <text x="0" xml:space="preserve" y="23" clip-path="url(#clipPath5)" stroke="none">Organisation</text>
      <circle r="2" clip-path="url(#clipPath5)" cx="43" cy="56" stroke="none"/>
      <text x="50" font-size="12px" y="59" clip-path="url(#clipPath5)" stroke="none" font-weight="normal" xml:space="preserve">identifier: Identifier</text>
      <circle r="2" clip-path="url(#clipPath5)" cx="43" cy="71" stroke="none"/>
      <text x="50" font-size="12px" y="74" clip-path="url(#clipPath5)" stroke="none" font-weight="normal" xml:space="preserve">name: langString [1,*]</text>
    </g>
    <g fill="silver" text-rendering="geometricPrecision" shape-rendering="geometricPrecision" transform="matrix(1,0,0,1,-189,-108)" stroke="silver">
      <rect x="204.5211" width="307" height="93" y="303" clip-path="url(#clipPath2)" stroke="none"/>
    </g>
    <g text-rendering="geometricPrecision" stroke-miterlimit="1.45" shape-rendering="geometricPrecision" transform="matrix(1,0,0,1,-189,-108)" stroke-linecap="butt">
      <rect fill="none" x="204.5211" width="307" height="93" y="303" clip-path="url(#clipPath2)"/>
    </g>
    <g font-size="14px" stroke-linecap="butt" transform="matrix(1,0,0,1,-189,-108) translate(211,306)" text-rendering="geometricPrecision" font-family="sans-serif" shape-rendering="geometricPrecision" font-weight="bold" stroke-miterlimit="1.45">
      <text x="0" xml:space="preserve" y="23" clip-path="url(#clipPath6)" stroke="none">Identifier</text>
      <circle r="2" clip-path="url(#clipPath6)" cx="43" cy="56" stroke="none"/>
      <text x="50" font-size="12px" y="59" clip-path="url(#clipPath6)" stroke="none" font-weight="normal" xml:space="preserve">scheme agency name: langString [0,1]</text>
      <circle r="2" clip-path="url(#clipPath6)" cx="43" cy="71" stroke="none"/>
      <text x="50" font-size="12px" y="74" clip-path="url(#clipPath6)" stroke="none" font-weight="normal" xml:space="preserve">scheme name: string [0,1]</text>
    </g>
    <g fill="silver" text-rendering="geometricPrecision" shape-rendering="geometricPrecision" transform="matrix(1,0,0,1,-189,-108)" stroke="silver">
      <rect x="655.25" width="209" height="93" y="620" clip-path="url(#clipPath2)" stroke="none"/>
    </g>
    <g text-rendering="geometricPrecision" stroke-miterlimit="1.45" shape-rendering="geometricPrecision" transform="matrix(1,0,0,1,-189,-108)" stroke-linecap="butt">
      <rect fill="none" x="655.25" width="209" height="93" y="620" clip-path="url(#clipPath2)"/>
    </g>
    <g font-size="14px" stroke-linecap="butt" transform="matrix(1,0,0,1,-189,-108) translate(662,623)" text-rendering="geometricPrecision" font-family="sans-serif" shape-rendering="geometricPrecision" font-weight="bold" stroke-miterlimit="1.45">
      <text x="0" xml:space="preserve" y="23" clip-path="url(#clipPath7)" stroke="none">AwardingOpportunity</text>
      <circle r="2" clip-path="url(#clipPath7)" cx="43" cy="56" stroke="none"/>
      <text x="50" font-size="12px" y="59" clip-path="url(#clipPath7)" stroke="none" font-weight="normal" xml:space="preserve">identifier: Identifier</text>
      <circle r="2" clip-path="url(#clipPath7)" cx="43" cy="71" stroke="none"/>
      <text x="50" font-size="12px" y="74" clip-path="url(#clipPath7)" stroke="none" font-weight="normal" xml:space="preserve">more information: Note</text>
    </g>
    <g fill="silver" text-rendering="geometricPrecision" shape-rendering="geometricPrecision" transform="matrix(1,0,0,1,-189,-108)" stroke="silver">
      <rect x="204.5211" width="236" height="108" y="410.5" clip-path="url(#clipPath2)" stroke="none"/>
    </g>
    <g text-rendering="geometricPrecision" stroke-miterlimit="1.45" shape-rendering="geometricPrecision" transform="matrix(1,0,0,1,-189,-108)" stroke-linecap="butt">
      <rect fill="none" x="204.5211" width="236" height="108" y="410.5" clip-path="url(#clipPath2)"/>
    </g>
    <g font-size="14px" stroke-linecap="butt" transform="matrix(1,0,0,1,-189,-108) translate(211,413)" text-rendering="geometricPrecision" font-family="sans-serif" shape-rendering="geometricPrecision" font-weight="bold" stroke-miterlimit="1.45">
      <text x="0" xml:space="preserve" y="23" clip-path="url(#clipPath8)" stroke="none">Note</text>
      <circle r="2" clip-path="url(#clipPath8)" cx="43" cy="56" stroke="none"/>
      <text x="50" font-size="12px" y="59" clip-path="url(#clipPath8)" stroke="none" font-weight="normal" xml:space="preserve">note format: Concept [0,1]</text>
      <circle r="2" clip-path="url(#clipPath8)" cx="43" cy="71" stroke="none"/>
      <text x="50" font-size="12px" y="74" clip-path="url(#clipPath8)" stroke="none" font-weight="normal" xml:space="preserve">note literal: langString [1,*]</text>
      <circle r="2" clip-path="url(#clipPath8)" cx="43" cy="86" stroke="none"/>
      <text x="50" font-size="12px" y="89" clip-path="url(#clipPath8)" stroke="none" font-weight="normal" xml:space="preserve">subject: Concept [0,1]</text>
    </g>
    <g fill="silver" text-rendering="geometricPrecision" shape-rendering="geometricPrecision" transform="matrix(1,0,0,1,-189,-108)" stroke="silver">
      <rect x="204.5211" width="143" height="43" y="245.5" clip-path="url(#clipPath2)" stroke="none"/>
    </g>
    <g text-rendering="geometricPrecision" stroke-miterlimit="1.45" shape-rendering="geometricPrecision" transform="matrix(1,0,0,1,-189,-108)" stroke-linecap="butt">
      <rect fill="none" x="204.5211" width="143" height="43" y="245.5" clip-path="url(#clipPath2)"/>
    </g>
    <g font-size="14px" stroke-linecap="butt" transform="matrix(1,0,0,1,-189,-108) translate(211,248)" text-rendering="geometricPrecision" font-family="sans-serif" shape-rendering="geometricPrecision" font-weight="bold" stroke-miterlimit="1.45">
      <text x="0" xml:space="preserve" y="23" clip-path="url(#clipPath9)" stroke="none">ConceptScheme</text>
    </g>
    <g fill="silver" text-rendering="geometricPrecision" shape-rendering="geometricPrecision" transform="matrix(1,0,0,1,-189,-108)" stroke="silver">
      <rect x="911.25" width="223" height="93" y="620" clip-path="url(#clipPath2)" stroke="none"/>
    </g>
    <g text-rendering="geometricPrecision" stroke-miterlimit="1.45" shape-rendering="geometricPrecision" transform="matrix(1,0,0,1,-189,-108)" stroke-linecap="butt">
      <rect fill="none" x="911.25" width="223" height="93" y="620" clip-path="url(#clipPath2)"/>
    </g>
    <g font-size="14px" stroke-linecap="butt" transform="matrix(1,0,0,1,-189,-108) translate(918,623)" text-rendering="geometricPrecision" font-family="sans-serif" shape-rendering="geometricPrecision" font-weight="bold" stroke-miterlimit="1.45">
      <text x="0" xml:space="preserve" y="23" clip-path="url(#clipPath10)" stroke="none">CreditPoint</text>
      <circle r="2" clip-path="url(#clipPath10)" cx="43" cy="56" stroke="none"/>
      <text x="50" font-size="12px" y="59" clip-path="url(#clipPath10)" stroke="none" font-weight="normal" xml:space="preserve">framework: Concept [1,1]</text>
      <circle r="2" clip-path="url(#clipPath10)" cx="43" cy="71" stroke="none"/>
      <text x="50" font-size="12px" y="74" clip-path="url(#clipPath10)" stroke="none" font-weight="normal" xml:space="preserve">point: string [1,1]</text>
    </g>
    <g fill="silver" text-rendering="geometricPrecision" shape-rendering="geometricPrecision" transform="matrix(1,0,0,1,-189,-108)" stroke="silver">
      <rect x="1164.25" width="278" height="93" y="620" clip-path="url(#clipPath2)" stroke="none"/>
    </g>
    <g text-rendering="geometricPrecision" stroke-miterlimit="1.45" shape-rendering="geometricPrecision" transform="matrix(1,0,0,1,-189,-108)" stroke-linecap="butt">
      <rect fill="none" x="1164.25" width="278" height="93" y="620" clip-path="url(#clipPath2)"/>
    </g>
    <g font-size="14px" stroke-linecap="butt" transform="matrix(1,0,0,1,-189,-108) translate(1171,623)" text-rendering="geometricPrecision" font-family="sans-serif" shape-rendering="geometricPrecision" font-weight="bold" stroke-miterlimit="1.45">
      <text x="0" xml:space="preserve" y="23" clip-path="url(#clipPath11)" stroke="none">LearningEntitlementSpecification</text>
      <circle r="2" clip-path="url(#clipPath11)" cx="43" cy="56" stroke="none"/>
      <text x="50" font-size="12px" y="59" clip-path="url(#clipPath11)" stroke="none" font-weight="normal" xml:space="preserve">identifier: Identifier</text>
      <circle r="2" clip-path="url(#clipPath11)" cx="43" cy="71" stroke="none"/>
      <text x="50" font-size="12px" y="74" clip-path="url(#clipPath11)" stroke="none" font-weight="normal" xml:space="preserve">limit national occupation: Concept</text>
    </g>
    <g fill="silver" text-rendering="geometricPrecision" shape-rendering="geometricPrecision" transform="matrix(1,0,0,1,-189,-108)" stroke="silver">
      <rect x="1095" width="265" height="108" y="123" clip-path="url(#clipPath2)" stroke="none"/>
    </g>
    <g text-rendering="geometricPrecision" stroke-miterlimit="1.45" shape-rendering="geometricPrecision" transform="matrix(1,0,0,1,-189,-108)" stroke-linecap="butt">
      <rect fill="none" x="1095" width="265" height="108" y="123" clip-path="url(#clipPath2)"/>
    </g>
    <g font-size="14px" stroke-linecap="butt" transform="matrix(1,0,0,1,-189,-108) translate(1102,126)" text-rendering="geometricPrecision" font-family="sans-serif" shape-rendering="geometricPrecision" font-weight="bold" stroke-miterlimit="1.45">
      <text x="0" xml:space="preserve" y="23" clip-path="url(#clipPath12)" stroke="none">LearningOpportunity</text>
      <circle r="2" clip-path="url(#clipPath12)" cx="43" cy="56" stroke="none"/>
      <text x="50" font-size="12px" y="59" clip-path="url(#clipPath12)" stroke="none" font-weight="normal" xml:space="preserve">default language: Concept [1,1]</text>
      <circle r="2" clip-path="url(#clipPath12)" cx="43" cy="71" stroke="none"/>
      <text x="50" font-size="12px" y="74" clip-path="url(#clipPath12)" stroke="none" font-weight="normal" xml:space="preserve">identifier: Identifier</text>
      <circle r="2" clip-path="url(#clipPath12)" cx="43" cy="86" stroke="none"/>
      <text x="50" font-size="12px" y="89" clip-path="url(#clipPath12)" stroke="none" font-weight="normal" xml:space="preserve">title: langString [1,*]</text>
    </g>
    <g fill="silver" text-rendering="geometricPrecision" shape-rendering="geometricPrecision" transform="matrix(1,0,0,1,-189,-108)" stroke="silver">
      <rect x="844.25" width="306" height="168" y="306" clip-path="url(#clipPath2)" stroke="none"/>
    </g>
    <g text-rendering="geometricPrecision" stroke-miterlimit="1.45" shape-rendering="geometricPrecision" transform="matrix(1,0,0,1,-189,-108)" stroke-linecap="butt">
      <rect fill="none" x="844.25" width="306" height="168" y="306" clip-path="url(#clipPath2)"/>
    </g>
    <g font-size="14px" stroke-linecap="butt" transform="matrix(1,0,0,1,-189,-108) translate(851,309)" text-rendering="geometricPrecision" font-family="sans-serif" shape-rendering="geometricPrecision" font-weight="bold" stroke-miterlimit="1.45">
      <text x="0" xml:space="preserve" y="23" clip-path="url(#clipPath13)" stroke="none">Qualification</text>
      <circle r="2" clip-path="url(#clipPath13)" cx="43" cy="56" stroke="none"/>
      <text x="50" font-size="12px" y="59" clip-path="url(#clipPath13)" stroke="none" font-weight="normal" xml:space="preserve">education level: Concept</text>
      <circle r="2" clip-path="url(#clipPath13)" cx="43" cy="71" stroke="none"/>
      <text x="50" font-size="12px" y="74" clip-path="url(#clipPath13)" stroke="none" font-weight="normal" xml:space="preserve">homepage: WebResource</text>
      <circle r="2" clip-path="url(#clipPath13)" cx="43" cy="86" stroke="none"/>
      <text x="50" font-size="12px" y="89" clip-path="url(#clipPath13)" stroke="none" font-weight="normal" xml:space="preserve">identifier: Identifier</text>
      <circle r="2" clip-path="url(#clipPath13)" cx="43" cy="101" stroke="none"/>
      <text x="50" font-size="12px" y="104" clip-path="url(#clipPath13)" stroke="none" font-weight="normal" xml:space="preserve">learning outcome summary: Note [0,1]</text>
      <circle r="2" clip-path="url(#clipPath13)" cx="43" cy="116" stroke="none"/>
      <text x="50" font-size="12px" y="119" clip-path="url(#clipPath13)" stroke="none" font-weight="normal" xml:space="preserve">other documents: WebResource [1,*]</text>
      <circle r="2" clip-path="url(#clipPath13)" cx="43" cy="131" stroke="none"/>
      <text x="50" font-size="12px" y="134" clip-path="url(#clipPath13)" stroke="none" font-weight="normal" xml:space="preserve">thematic area: Concept</text>
      <circle r="2" clip-path="url(#clipPath13)" cx="43" cy="146" stroke="none"/>
      <text x="50" font-size="12px" y="149" clip-path="url(#clipPath13)" stroke="none" font-weight="normal" xml:space="preserve">title: langString [1,*]</text>
    </g>
    <g fill="silver" text-rendering="geometricPrecision" shape-rendering="geometricPrecision" transform="matrix(1,0,0,1,-189,-108)" stroke="silver">
      <rect x="1042.75" width="213" height="123" y="728" clip-path="url(#clipPath2)" stroke="none"/>
    </g>
    <g text-rendering="geometricPrecision" stroke-miterlimit="1.45" shape-rendering="geometricPrecision" transform="matrix(1,0,0,1,-189,-108)" stroke-linecap="butt">
      <rect fill="none" x="1042.75" width="213" height="123" y="728" clip-path="url(#clipPath2)"/>
    </g>
    <g font-size="14px" stroke-linecap="butt" transform="matrix(1,0,0,1,-189,-108) translate(1049,731)" text-rendering="geometricPrecision" font-family="sans-serif" shape-rendering="geometricPrecision" font-weight="bold" stroke-miterlimit="1.45">
      <text x="0" xml:space="preserve" y="23" clip-path="url(#clipPath14)" stroke="none">LearningOutcome</text>
      <circle r="2" clip-path="url(#clipPath14)" cx="43" cy="56" stroke="none"/>
      <text x="50" font-size="12px" y="59" clip-path="url(#clipPath14)" stroke="none" font-weight="normal" xml:space="preserve">identifier: Identifier</text>
      <circle r="2" clip-path="url(#clipPath14)" cx="43" cy="71" stroke="none"/>
      <text x="50" font-size="12px" y="74" clip-path="url(#clipPath14)" stroke="none" font-weight="normal" xml:space="preserve">more information: Note</text>
      <circle r="2" clip-path="url(#clipPath14)" cx="43" cy="86" stroke="none"/>
      <text x="50" font-size="12px" y="89" clip-path="url(#clipPath14)" stroke="none" font-weight="normal" xml:space="preserve">related skill(s): Concept</text>
      <circle r="2" clip-path="url(#clipPath14)" cx="43" cy="101" stroke="none"/>
      <text x="50" font-size="12px" y="104" clip-path="url(#clipPath14)" stroke="none" font-weight="normal" xml:space="preserve">title: langString [1,*]</text>
    </g>
    <g fill="silver" text-rendering="geometricPrecision" shape-rendering="geometricPrecision" transform="matrix(1,0,0,1,-189,-108)" stroke="silver">
      <rect x="716.5" width="233" height="93" y="1133" clip-path="url(#clipPath2)" stroke="none"/>
    </g>
    <g text-rendering="geometricPrecision" stroke-miterlimit="1.45" shape-rendering="geometricPrecision" transform="matrix(1,0,0,1,-189,-108)" stroke-linecap="butt">
      <rect fill="none" x="716.5" width="233" height="93" y="1133" clip-path="url(#clipPath2)"/>
    </g>
    <g font-size="14px" stroke-linecap="butt" transform="matrix(1,0,0,1,-189,-108) translate(723,1136)" text-rendering="geometricPrecision" font-family="sans-serif" shape-rendering="geometricPrecision" font-weight="bold" stroke-miterlimit="1.45">
      <text x="0" xml:space="preserve" y="23" clip-path="url(#clipPath15)" stroke="none">Location</text>
      <circle r="2" clip-path="url(#clipPath15)" cx="43" cy="56" stroke="none"/>
      <text x="50" font-size="12px" y="59" clip-path="url(#clipPath15)" stroke="none" font-weight="normal" xml:space="preserve">identifier: Identifier</text>
      <circle r="2" clip-path="url(#clipPath15)" cx="43" cy="71" stroke="none"/>
      <text x="50" font-size="12px" y="74" clip-path="url(#clipPath15)" stroke="none" font-weight="normal" xml:space="preserve">spatial code: Concept [1,*]</text>
    </g>
    <g fill="silver" text-rendering="geometricPrecision" shape-rendering="geometricPrecision" transform="matrix(1,0,0,1,-189,-108)" stroke="silver">
      <rect x="204.5211" width="171" height="78" y="533" clip-path="url(#clipPath2)" stroke="none"/>
    </g>
    <g text-rendering="geometricPrecision" stroke-miterlimit="1.45" shape-rendering="geometricPrecision" transform="matrix(1,0,0,1,-189,-108)" stroke-linecap="butt">
      <rect fill="none" x="204.5211" width="171" height="78" y="533" clip-path="url(#clipPath2)"/>
    </g>
    <g font-size="14px" stroke-linecap="butt" transform="matrix(1,0,0,1,-189,-108) translate(211,536)" text-rendering="geometricPrecision" font-family="sans-serif" shape-rendering="geometricPrecision" font-weight="bold" stroke-miterlimit="1.45">
      <text x="0" xml:space="preserve" y="23" clip-path="url(#clipPath16)" stroke="none">WebResource</text>
      <circle r="2" clip-path="url(#clipPath16)" cx="43" cy="56" stroke="none"/>
      <text x="50" font-size="12px" y="59" clip-path="url(#clipPath16)" stroke="none" font-weight="normal" xml:space="preserve">URL: anyURI [1,1]</text>
    </g>
    <g text-rendering="geometricPrecision" stroke-miterlimit="1.45" shape-rendering="geometricPrecision" transform="matrix(1,0,0,1,-189,-108)" stroke-linecap="butt">
      <path fill="none" d="M833 851 L833 972.9683" clip-path="url(#clipPath2)"/>
      <path d="M833 980.9683 L838 968.9683 L833 971.9683 L828 968.9683 Z" clip-path="url(#clipPath2)" stroke="none"/>
    </g>
    <g text-rendering="geometricPrecision" stroke-miterlimit="1.45" shape-rendering="geometricPrecision" font-family="sans-serif" transform="matrix(1,0,0,1,-189,-108) translate(777,917)" stroke-linecap="butt">
      <text x="0" xml:space="preserve" y="12" clip-path="url(#clipPath17)" stroke="none">organisation [1,*]</text>
    </g>
    <g text-rendering="geometricPrecision" stroke-miterlimit="1.45" shape-rendering="geometricPrecision" transform="matrix(1,0,0,1,-189,-108)" stroke-linecap="butt">
      <path fill="none" d="M949.5 851 L949.5 949.5 L873.6 949.5 L873.6 972.9692" clip-path="url(#clipPath2)"/>
      <path d="M873.6 980.9692 L878.6 968.9692 L873.6 971.9692 L868.6 968.9692 Z" clip-path="url(#clipPath2)" stroke="none"/>
    </g>
    <g text-rendering="geometricPrecision" stroke-miterlimit="1.45" shape-rendering="geometricPrecision" font-family="sans-serif" transform="matrix(1,0,0,1,-189,-108) translate(856,878)" stroke-linecap="butt">
      <text x="0" xml:space="preserve" y="12" clip-path="url(#clipPath18)" stroke="none">accrediting organisation [1,1]</text>
    </g>
    <g text-rendering="geometricPrecision" stroke-miterlimit="1.45" shape-rendering="geometricPrecision" transform="matrix(1,0,0,1,-189,-108)" stroke-linecap="butt">
      <path fill="none" d="M759.75 713 L759.75 949.5 L792.4 949.5 L792.4 972.9692" clip-path="url(#clipPath2)"/>
      <path d="M792.4 980.9692 L797.4 968.9692 L792.4 971.9692 L787.4 968.9692 Z" clip-path="url(#clipPath2)" stroke="none"/>
    </g>
    <g text-rendering="geometricPrecision" stroke-miterlimit="1.45" shape-rendering="geometricPrecision" font-family="sans-serif" transform="matrix(1,0,0,1,-189,-108) translate(714,878)" stroke-linecap="butt">
      <text x="0" xml:space="preserve" y="12" clip-path="url(#clipPath19)" stroke="none">awarding body</text>
    </g>
    <g text-rendering="geometricPrecision" stroke-miterlimit="1.45" shape-rendering="geometricPrecision" transform="matrix(1,0,0,1,-189,-108)" stroke-linecap="butt">
      <path fill="none" d="M1293.75 231 L1293.75 246.5 L1457.75 246.5 L1457.75 965.5 L914.2 965.5 L914.2 972.9697" clip-path="url(#clipPath2)"/>
      <path d="M914.2 980.9697 L919.2 968.9697 L914.2 971.9697 L909.2 968.9697 Z" clip-path="url(#clipPath2)" stroke="none"/>
    </g>
    <g text-rendering="geometricPrecision" stroke-miterlimit="1.45" shape-rendering="geometricPrecision" font-family="sans-serif" transform="matrix(1,0,0,1,-189,-108) translate(1405,588)" stroke-linecap="butt">
      <text x="0" xml:space="preserve" y="12" clip-path="url(#clipPath20)" stroke="none">provided by [1,*]</text>
    </g>
    <g text-rendering="geometricPrecision" stroke-miterlimit="1.45" shape-rendering="geometricPrecision" transform="matrix(1,0,0,1,-189,-108)" stroke-linecap="butt">
      <path fill="none" d="M1161.25 231 L1161.25 246.5 L997.25 246.5 L997.25 297.9709" clip-path="url(#clipPath2)"/>
      <path d="M997.25 305.9709 L1002.25 293.9709 L997.25 296.9709 L992.25 293.9709 Z" clip-path="url(#clipPath2)" stroke="none"/>
    </g>
    <g text-rendering="geometricPrecision" stroke-miterlimit="1.45" shape-rendering="geometricPrecision" font-family="sans-serif" transform="matrix(1,0,0,1,-189,-108) translate(942,274)" stroke-linecap="butt">
      <text x="0" xml:space="preserve" y="12" clip-path="url(#clipPath21)" stroke="none">qualification [1,1]</text>
    </g>
    <g text-rendering="geometricPrecision" stroke-miterlimit="1.45" shape-rendering="geometricPrecision" transform="matrix(1,0,0,1,-189,-108)" stroke-linecap="butt">
      <path fill="none" d="M869.75 474 L869.75 489.5 L591.75 489.5 L591.75 965.5 L751.8 965.5 L751.8 972.9697" clip-path="url(#clipPath2)"/>
      <path d="M751.8 980.9697 L756.8 968.9697 L751.8 971.9697 L746.8 968.9697 Z" clip-path="url(#clipPath2)" stroke="none"/>
    </g>
    <g text-rendering="geometricPrecision" stroke-miterlimit="1.45" shape-rendering="geometricPrecision" font-family="sans-serif" transform="matrix(1,0,0,1,-189,-108) translate(545,664)" stroke-linecap="butt">
      <text x="0" xml:space="preserve" y="12" clip-path="url(#clipPath22)" stroke="none">publisher [1,1]</text>
    </g>
    <g text-rendering="geometricPrecision" stroke-miterlimit="1.45" shape-rendering="geometricPrecision" transform="matrix(1,0,0,1,-189,-108)" stroke-linecap="butt">
      <path fill="none" d="M1124.75 474 L1124.75 489.5 L1303.25 489.5 L1303.25 611.9681" clip-path="url(#clipPath2)"/>
      <path d="M1303.25 619.9681 L1308.25 607.9681 L1303.25 610.9681 L1298.25 607.9681 Z" clip-path="url(#clipPath2)" stroke="none"/>
    </g>
    <g text-rendering="geometricPrecision" stroke-miterlimit="1.45" shape-rendering="geometricPrecision" font-family="sans-serif" transform="matrix(1,0,0,1,-189,-108) translate(1270,549)" stroke-linecap="butt">
      <text x="0" xml:space="preserve" y="12" clip-path="url(#clipPath23)" stroke="none">entitles To</text>
    </g>
    <g text-rendering="geometricPrecision" stroke-miterlimit="1.45" shape-rendering="geometricPrecision" transform="matrix(1,0,0,1,-189,-108)" stroke-linecap="butt">
      <path fill="none" d="M1022.75 474 L1022.75 611.9644" clip-path="url(#clipPath2)"/>
      <path d="M1022.75 619.9644 L1027.75 607.9644 L1022.75 610.9644 L1017.75 607.9644 Z" clip-path="url(#clipPath2)" stroke="none"/>
    </g>
    <g text-rendering="geometricPrecision" stroke-miterlimit="1.45" shape-rendering="geometricPrecision" font-family="sans-serif" transform="matrix(1,0,0,1,-189,-108) translate(983,549)" stroke-linecap="butt">
      <text x="0" xml:space="preserve" y="12" clip-path="url(#clipPath24)" stroke="none">credit points</text>
    </g>
    <g text-rendering="geometricPrecision" stroke-miterlimit="1.45" shape-rendering="geometricPrecision" transform="matrix(1,0,0,1,-189,-108)" stroke-linecap="butt">
      <path fill="none" d="M920.75 474 L920.75 505.5 L759.75 505.5 L759.75 611.972" clip-path="url(#clipPath2)"/>
      <path d="M759.75 619.972 L764.75 607.972 L759.75 610.972 L754.75 607.972 Z" clip-path="url(#clipPath2)" stroke="none"/>
    </g>
    <g text-rendering="geometricPrecision" stroke-miterlimit="1.45" shape-rendering="geometricPrecision" font-family="sans-serif" transform="matrix(1,0,0,1,-189,-108) translate(677,549)" stroke-linecap="butt">
      <text x="0" xml:space="preserve" y="12" clip-path="url(#clipPath25)" stroke="none">awarding information [1,*]</text>
    </g>
    <g text-rendering="geometricPrecision" stroke-miterlimit="1.45" shape-rendering="geometricPrecision" transform="matrix(1,0,0,1,-189,-108)" stroke-linecap="butt">
      <path fill="none" d="M971.75 474 L971.75 521.5 L891.25 521.5 L891.25 719.9748" clip-path="url(#clipPath2)"/>
      <path d="M891.25 727.9748 L896.25 715.9748 L891.25 718.9748 L886.25 715.9748 Z" clip-path="url(#clipPath2)" stroke="none"/>
    </g>
    <g text-rendering="geometricPrecision" stroke-miterlimit="1.45" shape-rendering="geometricPrecision" font-family="sans-serif" transform="matrix(1,0,0,1,-189,-108) translate(849,588)" stroke-linecap="butt">
      <text x="0" xml:space="preserve" y="12" clip-path="url(#clipPath26)" stroke="none">accreditation</text>
    </g>
    <g text-rendering="geometricPrecision" stroke-miterlimit="1.45" shape-rendering="geometricPrecision" transform="matrix(1,0,0,1,-189,-108)" stroke-linecap="butt">
      <path fill="none" d="M1073.75 474 L1073.75 505.5 L1149.25 505.5 L1149.25 719.9728" clip-path="url(#clipPath2)"/>
      <path d="M1149.25 727.9728 L1154.25 715.9728 L1149.25 718.9728 L1144.25 715.9728 Z" clip-path="url(#clipPath2)" stroke="none"/>
    </g>
    <g text-rendering="geometricPrecision" stroke-miterlimit="1.45" shape-rendering="geometricPrecision" font-family="sans-serif" transform="matrix(1,0,0,1,-189,-108) translate(1078,588)" stroke-linecap="butt">
      <text x="0" xml:space="preserve" y="12" clip-path="url(#clipPath27)" stroke="none">learning outcome [1,*]</text>
    </g>
    <g text-rendering="geometricPrecision" stroke-miterlimit="1.45" shape-rendering="geometricPrecision" transform="matrix(1,0,0,1,-189,-108)" stroke-linecap="butt">
      <path fill="none" d="M833 1074 L833 1124.9712" clip-path="url(#clipPath2)"/>
      <path d="M833 1132.9712 L838 1120.9712 L833 1123.9712 L828 1120.9712 Z" clip-path="url(#clipPath2)" stroke="none"/>
    </g>
    <g text-rendering="geometricPrecision" stroke-miterlimit="1.45" shape-rendering="geometricPrecision" font-family="sans-serif" transform="matrix(1,0,0,1,-189,-108) translate(792,1101)" stroke-linecap="butt">
      <text x="0" xml:space="preserve" y="12" clip-path="url(#clipPath28)" stroke="none">location [1,*]</text>
    </g>
  </g>
</svg>
